<svg version="1.1" id="svgMapaEcuador" xmlns="http://www.w3.org/2000/svg" xmlns:xlink="http://www.w3.org/1999/xlink" x="0px" y="0px"
	 width="573.499px" height="400px" viewBox="426.501 0 573.499 400" enable-background="new 426.501 0 573.499 400"
	 xml:space="preserve">
<path id="ECU1266" name="Azuay" stroke="#FFFFFF" stroke-width="2" stroke-linecap="round" stroke-linejoin="round" d="
	M801.5,252.8l-0.4,1.8l0.101,0.601l0.2,0.601l0.5,0.399l0.5,0.3l0.399-0.1l0.3-0.301l0.101-0.699l0.2-0.601l0.399-0.6l0.601-0.601
	l0.6-0.3l0.5-0.2l0.6,0.101l0.3,0.1l1.9,1.4l0.4,0.399l0.399,1.1v0.5l-0.3,0.5l-0.6,0.5l-6.601,3.4l-0.6,0.5l-0.5,0.7l-1.9,3.399
	l-0.1,0.4l0.2,0.4l0.4,0.5l0.5,0.6l0.399,0.6l0.2,0.601v0.5l-0.3,0.899l-2.8,4.601l-0.4,1l-0.2,0.601l-1.399,3l-0.2,1v0.899l0.1,0.9
	l-0.2,1.1l-0.6,1l-1.6,1.7l-1.4,1.2l-2.1,1.1l-2.2,0.7l-1.2,1.2l-7.3,5.899l-0.3,0.601L778,297.1l0.3,1.101l-1.199,1.101
	L773.8,301.1l-1.1,0.801l-0.8,0.8l-0.5,0.8l-0.3,0.6L771,304.6l0.101,0.5l0.3,0.9l0.3,0.3l0.2,0.4v0.5l-0.4,1.2l-0.1,0.6l-0.101,0.7
	l0.4,2.1l-0.7,3.5l-0.2,0.601l-0.3,0.399l-0.899,0.4l-1,0.1L767.5,315.4l-0.2-1.9v-1.4L766.9,311l-1.8-2.9l-0.601-1.299L764,305.6
	l-0.3-0.299l-0.5,0.1l-1.7,0.8l-0.899,0.2h-1.2l-1.5-0.7l-0.7-0.7l-0.3-0.8l-0.2-1.3l0.1-1.1V301.1L756.4,300.2L755.8,299.6
	l-0.699-0.399H754.3l-1.699,0.101h-2L749,299.1l-1.5-0.6l-2-0.8l-1-0.101l-0.8-0.1l-2.2,0.3l-3.399,0.8L736,298.5l-0.7-0.2L735,298
	l0.101-0.5l0.199-0.3l1.2-0.5l0.601-0.4l0.3-0.6l0.3-1.2l1.4-2.6l0.199-0.801l0.101-0.899l-0.101-0.9l-0.3-0.8l-2.3-1.9l-7.2-3.799
	V281.6l0.2-0.5l0.4-0.799l3.3-4v-0.4l-0.101-1.7L732.9,272.6L732.8,271.4l0.301-1.5l0.5-1.4l13-13.6l1-0.7l0.5-0.399l1.3-1.4
	l0.399-0.6l0.101-0.701l-0.5-0.699l-0.7-1.5l2,0.1l0.9,0.6l0.699,0.701l1,2.399l0.601,0.601l0.8,0.199l1.5,0.2l1,0.601l0.5,0.6
	l0.6,1.3l0.5,0.7l5.301,5.5l0.8,0.5l0.7,0.199l0.6-0.399l0.2-0.399l0.1-1.101l0.3-0.399l0.5-0.301l1.2-0.5l0.5-0.4l0.3-0.399
	l0.4-0.8l0.3-0.301l0.4-0.1l0.7,0.301l0.699,0.5l0.9,0.799l0.8,0.801l1.7,2.199l1.1,0.801l1.301,1.3l0.399,0.601l0.2,0.6l0.3,1.5
	l0.3,0.6l0.9,0.301l2.2,0.199h0.899l1.2-0.199l0.4-0.101l1,0.2l0.2-0.1l0.1-0.4l-0.1-0.9v-0.5l0.3-0.5l1.1-1.4l0.2-0.299l0.1-0.5
	v-0.4l-0.199-0.6l-0.2-0.701l0.2-0.5l0.399-0.6l0.5-0.5l0.601-0.3l0.8,0.101l1.1,0.199h0.5l0.601-0.3l0.8-0.601l1.1-1l0.6-0.399
	l1.4-0.3l0.7-0.2l0.9-0.7l0.3-0.8l0.1-0.7l0.3-0.6l0.601-0.6l2.199-1.5L801.5,252.8L801.5,252.8z">
		<title>Azuay</title>
	</path>
<path id="ECU1267" name="El Oro" fill="#7C7C7C" stroke="#FFFFFF" stroke-width="2" stroke-linecap="round" stroke-linejoin="round" d="
	M729.5,282.8l7.2,3.8l2.3,1.9l0.3,0.8l0.101,0.899l-0.101,0.9l-0.2,0.801l-1.399,2.6l-0.3,1.199L737.1,296.3l-0.6,0.399l-1.2,0.5
	l-0.2,0.301L735,298l0.3,0.3l0.7,0.2l2.1,0.1l3.4-0.8l2.2-0.3l0.8,0.1l1,0.101l2,0.8l-0.4,3.1l0.101,1.101l0.3,1l0.3,0.5l0.3,0.3
	l0.9,0.3l0.3,0.2l0.2,0.4v0.299l-0.2,0.701l-2.1,2.399l-0.3,0.601L746.6,310.1v1.4v0.8l-0.8,2.7l-0.1,0.8l0.1,0.601l0.3,0.399
	l0.301-0.2l0.5-0.3l0.699-0.8l0.7-0.9l0.4-0.3l0.5-0.2l0.7,0.101l0.399,0.3l0.7,0.7l0.7,0.399l0.4,0.301l0.399,0.5l0.3,0.699
	l0.101,0.801L752.8,318.8l-0.3,0.899l-0.3,0.601l-0.3,0.399l-0.9,0.9l-0.3,0.4v0.4l0.4,1.6v0.6l-0.2,0.5l-0.5,0.7l-0.4,0.399
	l-0.8,0.5l-1.1,0.201H747l-0.7-0.201l-1.1-0.399l-0.8-0.2l-2,0.4l-1-0.2l-0.7-0.3l-1-0.9l-0.3-0.4l-0.5-0.799l-0.3-0.101h-0.5
	l-0.601,0.399l-0.8,0.301l-1.8,1l-0.7,0.6l-1.5,1.801l-0.9,0.399l-1.199,0.3l-3.9,0.2l-1-0.101l-1.2-0.399l-0.899-0.2H722.5
	l-3.399,0.301l-1.2,0.299l-3.5,1.701l-3.8,0.799L706.3,331.4l-0.899,0.1L705,331l-0.5-0.301l-0.5-0.6l-0.2-0.5v-1.1v-0.6l-0.6-1.201
	L702,324.8l-0.2-1.2l0.101-0.4l0.399-0.899v-0.601l-0.399-1.1l-0.101-1.1l0.101-0.5l0.399-1.2l0.101-0.601l-0.101-0.6L702,315.4
	V314.8l-0.2-0.601l-1.1-0.399l-0.4-0.399l0.101-0.5l0.399-1.601l0.101-1.101v-0.6L700.8,309l-0.399-0.4l-1-0.4l-0.3-0.299
	l-0.2-1.301l0.399-1.199l0.101-1.101l-0.8-0.601l-2.301-0.6L695,302.4l-0.2-0.9l0.101-0.6l0.8-0.5l0.4-0.701l0.3-0.799l0.6-0.9
	l-0.6,1.699l-0.2,0.4l0.3,1.2l0.7-0.5l0.4-1.899l0.6-0.9l1.6,1.699l0.8-0.399l4.301-0.899l1.699,0.299l0.601-0.299l1.3-1.601
	l0.3-0.2l2.2-4.699l0.7-0.801l1.3,0.2l0.3,1.399l-0.5,2.9l0.7-0.4l0.4-0.6l0.3-0.6l0.5-0.7l0.5-0.399l1.899-1.201l0.9-1l0.6-1.299
	l0.301-1.301l0.3-2.3l0.899-2.2l1.301-2l0.5,0.1l4.5,0.201l0.6,0.1L729.5,282.8L729.5,282.8z">
		<title>El Oro</title>
	</path>
<path id="ECU1268" name="Loja" fill="#7C7C7C" stroke="#FFFFFF" stroke-width="2" stroke-linecap="round" stroke-linejoin="round" d="
	M768.6,316.8l-1.199,1.5l-0.4,0.2l-0.9,0.8l-0.2,0.4v0.8v0.4l-0.3,0.399l-0.6,0.3h-1.3l-0.3,0.2l-0.2,0.7l0.2,1l0.6,1.1l0.8,2
	l0.6,0.9l1.2,1.3l0.7,1.2l0.1,0.6l0.2,1l-0.1,0.601l-0.2,0.6l-0.6,1.3l-0.3,1.301l-0.2,1.899l0.1,1.399l0.3,1.801l-0.1,0.9
	l-0.9,3.299L765.5,346v0.9l0.3,0.699l0.6,0.5L767,348.4l0.5,0.399l0.2,0.3l0.699,0.801l0.2,1v1l-0.1,0.799l0.2,1.5l-0.5,3.4l0.1,0.7
	l0.1,1.5l-0.1,1.2l-0.4,1.9L767.5,363.8l-0.8,0.7l-0.801,1.199l-0.5,0.9L765,367l-0.5,0.199l-1,0.301l-0.3,0.199l-0.301,0.601
	l-0.399,0.3h-0.601l-0.5-0.4l-0.6-0.5l-0.5-0.199l-0.8-0.1l-0.7-0.301l-0.6-0.1h-0.4l-0.5,0.4L757,368.1l-0.4,0.4l-0.899,0.699
	L755.399,371l0.101,0.6l0.2,1.1L755.6,373.4l-0.3,0.799L755,374.9l-1.9,2.6l-0.7,0.9l-2,3.199l-2.6,2.7l-0.5,0.3v-0.1l-1.6-2.9
	L745,378l-1.7-2.5v-1.301l1.4-2.399l0.1-0.899l-0.3-0.601l-1.2-0.7h-1.4L741.5,369.4l-0.8-0.601l-0.5-0.2l-3-3l-1.7-0.8l-2.101,0.3
	l-2.1,1.2l-3.9,1.2l-2.3-0.301l-1.399-1.6l-1.301-1.8l-1.5-1.399l-1.5-0.4h-1.6l-1.5-0.2l-1.6-0.899l-1.2-0.801l-2-2.199l-1-0.9
	l-1-0.301l-1.3-0.299l-0.9-0.301l-0.4-0.6H706.7l-2.4,0.4l-0.7,0.199L703,356.4l-0.5,0.399l-0.5,0.8l-0.601,2.1l-0.399,1l-1,1
	l-4.5,3.5L693,366.5l-0.601,0.5l-1.5,0.1l-1-0.4l-2.6-1.5l-0.8-0.699l-0.6-1.301l0.3-1l7.8-10.5l0.7-1.299l-2.8,0.399l-2.5,0.7
	l-2.101-0.2l-1.3-2.601v-0.6l0.3-1.1l-0.1-0.6l-0.3-0.801l-1-1.3l-0.301-0.7l0.2-1.199l0.5-1.5l0.7-1.4l0.6-1l0.9-0.6l1.1-0.4h1.2
	h1.2l1.2,0.4l2.5,1.399l1.2,0.2l1.2-0.6l1-1.301l0.899-1.3l0.8-1.101l4.601-2.1l1-1.1v-0.5l0.899-0.1l4.301-0.201l3.8-0.799
	l3.5-1.701l1.2-0.299l3.399-0.301h1.101l0.899,0.2l1.2,0.399l1,0.101l3.9-0.2l1.199-0.3l0.9-0.399l1.5-1.801l0.7-0.6l1.8-1l0.8-0.3
	l0.601-0.4h0.5l0.3,0.101l0.5,0.8l0.3,0.399l1,0.9l0.7,0.3l1,0.2l2-0.4l0.8,0.2l1.1,0.4l0.7,0.2h1.101l1.1-0.2l0.8-0.5l0.4-0.4
	l0.5-0.7l0.2-0.5V324l-0.4-1.6V322l0.3-0.4l0.9-0.899l0.3-0.4l0.3-0.6l0.3-0.9l0.101-0.899L752.8,317.1l-0.3-0.699l-0.4-0.5
	L751.7,315.6L751,315.2l-0.7-0.7l-0.399-0.3l-0.7-0.101l-0.5,0.2l-0.4,0.3l-0.7,0.9l-0.7,0.8l-0.5,0.3l-0.3,0.2l-0.3-0.399
	l-0.1-0.601l0.1-0.8l0.8-2.7v-0.8v-1.4l0.3-0.699l0.301-0.601l2.1-2.399l0.2-0.7v-0.3l-0.2-0.4l-0.3-0.2l-0.9-0.3l-0.3-0.3l-0.3-0.5
	l-0.3-1L747.1,301.6l0.4-3.1l1.5,0.6l1.6,0.2h2l1.7-0.1h0.8l0.7,0.399l0.6,0.601l0.4,0.899v0.7l-0.1,1.101l0.2,1.3l0.3,0.8l0.7,0.7
	l1.5,0.7h1.199l0.9-0.2l1.7-0.8l0.5-0.101l0.3,0.3l0.5,1.2l0.6,1.3l1.801,2.9l0.399,1.1v1.4l0.2,1.9L768.6,316.8z">
		<title>Loja</title>
	</path>
<path id="ECU1269" name="Zamora Chinchipe" fill="#7C7C7C" stroke="#FFFFFF" stroke-width="2" stroke-linecap="round" stroke-linejoin="round" d="
	M811.8,310.5l-0.1,0.2L810.6,313.1L810.2,314.4l-0.101,1.1v2.2l0.2,1.2v0.6l-0.399,0.3L808.8,320v1.1l0.7,3.9l-0.3,1.1l-1.5,1.4
	l-0.4,0.3l-0.8,0.4l-0.3,0.2l-0.6,1.199l-0.5,1.101l-0.601,4.5v0.399l-0.2,0.201l-0.8,0.5l-0.8,0.199l-0.7,0.1l-0.7,0.101l-0.6,0.7
	l-0.3,0.9l0.1,3.6l-0.7,2.6l-3.6,7.7l-0.5,2.601l-0.6,1.1l-1.101,0.9l-0.399,1.299v2.201l0.5,2.299l0.699,1.101l1.4,0.899l-0.1,0.9
	l-0.9,1.2l-0.9,1.3l-0.1,1.1v1.201l-0.1,1.199l-0.5,0.9l-2.301,1.5L785.9,376.1l-2.5,1.4l-2.7,2.5l-1.1,1.6l-0.7,1.601l0.1,1.7
	l1.3,2.6l0.301,1.5L780,390.2l-1.399,0.3H777l-1.2,0.301l-0.6,1l-0.7,2.899l-0.399,1.2l-1.5,1.699l-1.7,1.4l-1.101-1.1l-0.699-0.5
	L768.5,397.1h-0.6l-1,0.201H766.3l-1-0.201l-2-0.699l-1.1-0.2l-4.2,0.2l-1.399-0.4l-0.801-1l-0.6-1.3l-0.8-1.101l-0.5-0.399
	l-1.2-0.399l-0.5-0.4l-0.3-0.5l-0.4-1.2l-0.3-0.5l-1.1-0.8l-1.2-0.6l-1-0.801l-0.4-1.3l-0.2-1.101l0.5-0.299l2.601-2.701l2-3.199
	l0.7-0.9l1.899-2.6l0.3-0.7l0.301-0.8l0.1-0.7l-0.2-1.101l-0.1-0.6l0.3-1.8l0.9-0.7l0.399-0.4l0.3-0.699l0.5-0.4h0.4l0.6,0.1
	l0.7,0.301l0.8,0.1l0.5,0.2l0.601,0.5l0.5,0.399h0.6l0.4-0.299l0.3-0.601l0.3-0.2l1-0.3l0.5-0.2l0.4-0.4l0.5-0.899l0.8-1.2
	l0.8-0.699l0.4-0.9l0.399-1.9l0.101-1.199l-0.101-1.5l-0.1-0.701l0.5-3.399l-0.2-1.5l0.101-0.8v-1l-0.2-1l-0.7-0.801l-0.2-0.299
	l-0.5-0.4l-0.6-0.301l-0.601-0.5l-0.3-0.699V346l0.101-1.3l0.899-3.3l0.101-0.9l-0.301-1.8l-0.1-1.399l0.2-1.9l0.3-1.301l0.6-1.299
	l0.2-0.601l0.101-0.601l-0.2-1L767.3,330l-0.699-1.199l-1.2-1.301l-0.601-0.9l-0.8-2l-0.6-1.1l-0.2-1l0.2-0.699l0.3-0.201h1.3
	l0.601-0.299l0.3-0.4v-0.4v-0.8l0.2-0.399L767,318.5l0.4-0.199l1.2-1.5l1-0.101l0.899-0.399l0.3-0.4l0.2-0.6l0.7-3.5l-0.4-2.101
	l0.101-0.7l0.1-0.6l0.4-1.2v-0.5l-0.2-0.399L771.4,306l-0.3-0.9L771,304.6l0.101-0.5l0.3-0.6l0.5-0.8l0.8-0.8l1.1-0.801l3.301-1.799
	l1.199-1.101l4.9,3.5l0.4,0.399l0.199,0.5v0.301l-0.1,0.4l-1.3,1.199l-0.2,0.4v0.8l0.2,0.8l0.1,1.1l0.3,1l0.5,0.701l0.5,0.399
	l0.2,0.399l0.2,0.801l0.4,0.3l0.6,0.3l1.7,0.301l2.5,0.699l2,0.2l0.6,0.2l1,0.5l0.4,0.1l0.4-0.3l0.3-0.399l0.6-1.101l0.5-0.5
	l0.6-0.101l0.7-0.1l2.3,0.2h1.2l4.3-0.8L811.8,310.5L811.8,310.5z">
		<title>Zamora Chimchipe</title>
	</path>
<path id="ECU1270" name="Galápagos" fill="#7C7C7C" stroke="#FFFFFF" stroke-width="2" stroke-linecap="round" stroke-linejoin="round" d="
	M550.9,124.8l1.6,0.5l1.201,1.3l0.1,1.2L552,128.4l-1.9-0.2l-4.799-2.2l1.199-1.2l0.9,0.2l2.801-0.1L550.9,124.8z M502.701,117.4
	l0.6,0.9l1.199-0.3l1.6,0.3l1.5,0.6l0.701,0.9l0.6,0.5l0.1,0.4v0.4l-0.5,0.8l-1.1,0.4l-0.1,0.3l0.1,0.7v0.2l-0.301,0.4l-2,1.2
	l-0.398,0.1l-2.102-0.3l-0.898-0.6l-0.801-0.8l-1.199-0.8l0.5-0.6l0.5-0.8l0.398-0.8l0.4-1.8l0.6-1L502.701,117.4L502.701,117.4z
	 M572,85.8l0.701,0.4h0.799l0.701-0.3L575,85.5l0.102,2.3L574,90.2l-1.699,2.2l-1.801,1.4l-2.1,0.6l-0.299,0.3L568,95.3l-0.699,1.7
	l-1.199,1.9l-0.801,0.8l-0.9,0.6l-0.9,0.3l-0.898,0.1h-2l-0.701,0.2l-1.199,0.8l-0.801,0.2l-0.6-0.2L556,100.9l-0.5-0.2l-2.199-0.3
	l-0.5-0.3l-0.1-0.6l0.398-0.6l0.701-0.9l0.5-0.5l2.4-1.1l0.799-0.6l0.6-2l0.602-0.1l2.5-0.6l0.699-0.7l0.9-1.9l0.5-0.7l1.6-1.5
	l0.301-0.5l0.5-0.4l2.1-0.7L568.5,86h0.9l1.801-0.5L572,85.8z M516.5,75.1l-0.1,0.7l0.1,0.6l0.5,0.2l0.6,0.1l1.102,0.2L519.4,77
	l0.699,0.6L519.9,79l-0.699,2.5v0.7l0.299,0.9l0.1,0.7l-0.1,0.1l-0.5,1.3v0.3l-1,0.4l-0.699,1L516.6,88l-0.699,0.8l-0.5,0.4
	l-0.301,0.1l-2.898-0.1l-0.301,0.2l-0.301,1.2l-0.799,0.6l-1.1,0.2l-1.102-0.1l-2-0.7l-1.299-0.2l-0.701-0.6l-0.299-0.2l-0.4-0.4
	l-1.301-1.8l-0.5-0.6l-0.898,0.1l-1.102-0.3l-1-0.5l-0.699-0.6l-0.1-0.7l0.1-2.9l0.4-1.6l0.6-1.4l0.9-1.3l0.9-1l0.6-0.4l1.6-0.7
	l0.699-0.1h0.701l1.299,0.3l0.5,0.1l0.5-0.2l0.701-0.4l0.4-0.2l5.6-0.6l1.299-0.7l0.301,0.1l0.699,0.5l0.301,0.3L516.5,75.1
	L516.5,75.1z M444.3,60.3l2,2.1l0.6,0.3l0.7,0.6l0.2,1.2l-0.3,2.3v5.1l-0.6,0.3l-4.1,1.7l-1,0.2l-0.6,0.1l-0.6-0.2l-1.3-0.9
	l-1.1-0.3l-1.7-0.7l-0.9,0.1l-0.6-0.3v-0.4l-0.1-0.2l-1-1.1l-0.8-1.2l-0.5-1.4l-0.4-2.7l-0.8-2.2l0.2-0.8l5.2,0.1l2.2-1.1l2.8-0.6
	l1.4-0.5l0.4,0.1L444.3,60.3z M484.6,53.7l1.2,0.9l4,1.4l1.5,0.2l1.9,0.7l3.1,3.5L498,61.5l-0.4,0.1l-0.398,0.3L498,62.4l-0.4,1.1
	l-1.199,1.9l-0.5,1.2l-1.1,0.4l-1.301-0.2L491,66h-4.2l-1.1-0.3L484.6,65l-1.101-0.4l-1.299,0.6l-0.9-1l-0.4-1.6l-0.6-1.2l-1.5-0.3
	l2.6-3.5l0.1-0.8l-0.299-1l0.399-1.1l1-0.7l1.101-0.3l0.5,0.4L484.6,53.7z M451.2,35.8l0.9,0.8l0.5,1.4l0.2,1.3l0.2,0.5l0.8,0.6
	l0.7,2.6l0.5,0.5l0.4,0.3l0.8,1.1l0.4,0.3h1.3l0.6,0.2l0.4,0.2l0.4,1l0.1,1.5l-0.1,2.8l1.1,6.6l0.6,1.1l2.5,2.2l0.2,0.3l0.1,1
	l0.2,0.7l0.4,0.3l0.4,0.1l0.2,0.1l6,3.9l0.5,0.6l0.1,0.6l0.4,0.5l0.7,0.8l0.3,0.1l1,0.3v0.3l-0.4,0.9l0.5,2.2l0.3,2.5l-0.4,1.1
	l-1.6,1.4l-0.5,0.9l1.4-0.8l0.4,0.5v1.1l0.3,0.9l2.5,0.5l1.2,0.6l-0.1,1.3l0.8,0.2l0.7,0.3l0.6,0.5l0.4,0.7l-0.4,0.8l0.799,0.4
	l2.101,2.1l0.5,0.3h0.399l0.201,0.2v0.9l-0.301,0.3l-1.4,0.6l-0.5,0.3l-1.899,5.8l0.3,1.5l-0.1,1.1l-1.3-0.4l-0.7,1l-1.5,1.7
	l-0.7,0.9l-1-0.4l-1-0.1l-1.9,0.1l-1.1,0.3l-1.9,1.4l-6.9,2.3l-1.3-0.3l-0.9,0.3l-5.3-0.8l-6.7,0.1l-1.3-0.4l-0.9-0.8l-0.2-0.7
	l-0.1-0.6v-1.4l-0.3-0.7l-0.5-0.1l-0.7-0.1l-0.6-0.1l-1.5-2.4l0.5-2.7l1.6-2.5l1.8-1.8l7-4.5l0.3-0.5v-0.4l0.2-0.3l0.9-0.1l1.5-0.6
	l2.1-0.5h0.7l0.6,0.1l1,0.7l1,0.4h0.7l0.6-0.2l0.3-0.4l0.5-0.9l0.4-0.2v-0.6l0.5-1.2l0.8-0.9l0.9,0.3l0.7-1l0.1-0.9l-0.5-0.7
	l-0.7-0.7l-0.8-0.4l-1.7-0.5l-0.8-0.3l-1.4-1.3l-1.4-1.9l-1.1-2.1l-0.6-2l0.1-1.7l-0.1-0.7l-0.8-0.5l-0.4-0.2h-0.8l-0.4-0.2
	l-0.2-0.3l-0.6-0.9l-3.6-2l-1.3-1.5v-1.9l-1.2-0.7l-0.7-1.3l0.1-1.2l1.4-0.4l-1.1-1.6l-0.4-0.8l-0.1-1.1v-2l-0.1-0.5l-0.3-1v-0.6
	l-0.5-2l-1.3-0.9l-1.9-0.1l-2,0.8l-2.1,1.4l-1,0.2l-1.2-0.6l-1.2-1.6l-0.2-0.4l0.1-0.5l0.3-0.3l0.5-0.2l4-2.2l1.2-1.2l0.4-2.4
	l1.5,0.5l1.1-0.3l1.2-0.6l1.9-0.6l0.4-0.4l0.4-0.6l0.4-0.4l0.7-0.2h1.1L451.2,35.8L451.2,35.8z M503.801,29l-1.301,0.3l-0.699-0.3
	L501,28.2l-0.699-0.1l-0.6-0.3l-0.602-0.4l-0.398-0.6l-0.301-0.4l0.199-1.3l0.9-1l1.301-0.7l1.299-0.2l1.301,0.4l1.5,0.7l1.1,0.9
	l0.6,1.2l-0.398,0.9l-1.102,1L503.801,29z M486.5,10.1L485.6,12l-2.7-1.1l0.5-1.3l-0.5-2.5l0.5-1.1l2.4,1.4L486.5,10.1z">
		<title>Galápagos</title>
	</path>
<path id="ECU1277" name="Bolivar" fill="#7C7C7C" stroke="#FFFFFF" stroke-width="2" stroke-linecap="round" stroke-linejoin="round" d="
	M782.6,170.3l-1.3,2.4l-0.1,0.8l-0.101,2.2l-0.3,1l-0.8,1.7l-0.4,1.1l-0.6,3l0.2,0.9l1.4,2.1l0.699,0.7l0.5,0.9l-0.1,1.2l0.2,0.6
	l0.3,0.7l0.9,1.5l0.3,0.8v1l-0.2,1.4l-0.1,1.4l0.1,2l-0.2,1.6l-0.6,1.5l-1.2,1.8l-2.1,1.9l-0.801,0.199L776.101,205l-0.7,0.4
	l-0.5,0.399l-0.3,0.5l-0.2,0.601v1l-0.2,2.699l0.1,1.9l0.4,1.3v0.601l-1.5,7.699v0.7l0.2,0.601l0.3,0.5l0.1,0.6l-0.1,0.699
	l-0.3,0.701L772.3,227.6l-2.199,2.1l-3.2,1.701l0.2-2.4l-0.301-0.5L766.4,228H765.8l-0.6,0.3l-0.3,0.399l-0.4,0.201l-0.7,0.1
	l-0.699-0.1l-2.4-0.4l0.9-1.9l0.399-2l0.5-0.899v-0.5l-0.399-0.9L760,219l-1.899-2.5V216l0.199-0.5l0.7-0.5l0.3-0.3l1-4l0.601-1.101
	l0.1-0.899l-0.2-0.601l-0.5-0.699L759.9,206.6l-0.2-0.699l-0.1-0.7l0.3-1.101l-0.101-0.5L758,200.9l-0.7-1.3L756.9,199l-0.4-0.2
	l-0.4,0.1l-0.3-0.2l-0.2-0.3L754.4,198l-0.2-0.3l0.2-0.4l0.8-0.5l0.399-0.4l1.7-1.8l0.3-0.1l0.7,0.3h0.3l0.2-0.2l0.601-1l0.3-0.9
	l0.1-0.8l-0.3-0.7l-0.5-0.5l-1.9-1.3l-0.8-0.8l-0.6-1l-0.2-1.3l0.1-4.6l0.101-0.6l0.3-0.4h0.5l0.7-0.4l0.2-0.4l-0.101-0.3l-1.7-1.2
	l-0.6-1.1l-0.4-0.3l-0.3,0.1l-0.399,0.3l-0.801,1.1l-0.399,0.4l-0.5,0.2l-0.4-0.1l-0.2-0.3l0.101-0.8l0.899-1l1.5-2.3l1.101-1.5
	l2.8-1.3l2.7-0.2l4.399-2.2l1.4-0.4l1.7-0.2h0.8l0.8,0.1l0.4,0.4l0.7,0.8l1.699,1.2l1.2,0.5l1.4,0.4l1.3-0.1l1.1-0.3l1.601-1.4
	l1-0.5l0.7-0.1L782.6,170.3z">
		<title>Bolivar</title>
	</path>
<path id="ECU1278" name="Cañar" fill="#7C7C7C" stroke="#FFFFFF" stroke-width="2" stroke-linecap="round" stroke-linejoin="round" d="
	M799.7,237.9v0.6l0.8,0.5l3.7,1.6l0.899,0.7l0.4,0.7l-0.2,1.2l0.101,3.399L805.1,247.7v1.2l-0.1,0.5l-0.2,0.5l-1.5,2.199l-0.6,0.7
	l-0.4,0.3H801.9l-0.4-0.3h-0.9l-2.199,1.5L797.8,254.9l-0.3,0.6l-0.1,0.7L797.1,257l-0.899,0.7l-0.7,0.2l-1.4,0.3l-0.6,0.399l-1.1,1
	L791.6,260.2l-0.6,0.3h-0.5l-1.1-0.2l-0.8-0.101L788,260.5l-0.5,0.5l-0.399,0.6l-0.2,0.5l0.2,0.7l0.199,0.601v0.399l-0.1,0.5
	l-0.2,0.3l-1.1,1.4l-0.3,0.5v0.5l0.1,0.9l-0.1,0.399l-0.2,0.101l-1-0.201L784,268.3l-1.2,0.2H781.9l-2.2-0.2l-0.9-0.3l-0.3-0.6
	l-0.3-1.5L778,265.3l-0.4-0.601l-1.3-1.299l-1.1-0.801l-1.7-2.199l-0.8-0.801l-0.9-0.8l-0.7-0.5L770.4,258l-0.4,0.1l-0.3,0.301
	l-0.4,0.799l-0.3,0.4l-0.5,0.4l-1.2,0.5l-0.5,0.3l-0.3,0.399l-0.1,1.101l-0.2,0.399l-0.601,0.4L764.9,262.9l-0.801-0.5l-5.3-5.5
	l-0.5-0.701l-0.6-1.299l-0.5-0.601l-1-0.601l-1.5-0.199l-0.8-0.2l-0.601-0.601l-1-2.399l-0.699-0.7l-0.9-0.6l-2-0.1l-1.7,0.5
	l-1.4,0.699L744.7,250l-0.5-0.4l-0.101-0.8l3.301-3.101l2-1.299l0.1-0.301l-0.5-0.9l0.1-0.5l0.301-0.5V240.8l0.5-0.8l0.6-0.6
	l1.7-1.301l0.8-0.4l0.7-0.299l7-1.301l1.2-0.3l1.399-0.601l1.3-0.799l0.9-0.601l0.9-1.101l0.5-1.299l0.3,1.6l0.5,0.9l0.399,0.199
	l0.601,0.4l0.3,0.199l0.3,0.9l0.3,0.5l1,0.6l0.5,0.5l1.9,2.701l0.9,0.799l0.8,0.601l1.3,0.5l1.2,0.8l0.7,0.4l1.399,0.1l1.7-0.1
	l1.9-0.5l2-1l1-0.9l1.399-1.4l1.5-0.5l2.2-0.5l7.5-0.899L799.7,237.9L799.7,237.9z">
		<title>Cañar</title>
	</path>
<path id="ECU1279" name="Cotopaxi" fill="#7C7C7C" stroke="#FFFFFF" stroke-width="2" stroke-linecap="round" stroke-linejoin="round" d="
	M810.5,140.9l-0.5,1.5l0.1,0.7l0.601,2.1l0.3,2.1l0.1,1.3l-0.2,1.1L810.2,151l-0.601,0.9l-0.3,0.8l-0.1,0.6v0.9l-0.2,0.5l-0.2,0.4
	l-0.8,0.5l-0.1,0.4l0.199,0.4l0.4,0.3l1.4,0.3l1,0.5l-1.7,1.5l-0.3,0.5l-0.301,0.6l-0.199,0.6l-0.101,0.6v1.1l-0.7,1.2l-0.5,0.6
	l-0.8,0.3l-1.399,0.1l-0.801-0.2l-0.5-0.4l-0.3-0.3l-0.8-0.5h-0.7l-0.6,0.1l-0.6,0.6v1.1l-0.2,0.5l-0.5,0.3l-0.5,0.2l-1.601,0.1
	l-0.6,0.2l-1.4,1.2l-1,0.5l-0.899,0.2l-1.5-0.1l-2.8-0.6l-1.101,0.1l-1.1,0.2l-1.5,0.5l-1.601,1.4l-1.699,0.6l-1.7-0.5l-0.7,0.1
	l-1,0.5l-1.6,1.4l-1.101,0.3l-1.3,0.1l-1.4-0.4l-1.199-0.5l-1.7-1.2l-0.7-0.8l-0.4-0.4l-0.8-0.1h-0.8l-1.7,0.2l-1.399,0.4l-4.4,2.2
	l-2.7,0.2l-0.4-1.9l-1.6-2.1l-0.5-0.9v-1.4l0.1-1.5l0.9-4.2l-0.1-1v-1.1l0.2-1l0.8-2.1l0.5-0.9l0.6-0.6l0.7-0.5l0.7-0.6l1.6-3
	l0.5-0.5l0.5-0.5l1-0.6l0.4-0.5l0.899-1.6l4.101-9.6l0.6-2.7l0.9,1.4l0.6,0.4l0.4,0.2h0.5l0.6-0.3l0.5-0.9l0.2-0.8l0.3-0.3l0.4-0.3
	l1.1-0.4l0.2-0.2v-0.3l-0.3-1l-0.3-0.4l-0.5-0.4l-1-0.4l-0.4-0.6l0.8-1.5l0.8-1.8l0.5-0.6l1.2-0.6l0.5-0.5l0.2-0.9l0.5-0.8l0.5-0.4
	l0.7-0.1l0.6-0.7l0.3-0.1l0.5,0.4l0.2,0.4v0.7l0.2,0.4l2.2,2.9l0.899,1.6l0.7,1.1l0.2,0.5l0.4,1.5l0.199,0.7l0.801,0.7l3.8,2.6
	l1,1.4l0.6,1.3l0.101,1l0.199,0.6l0.4,0.5l0.4,0.2l0.5-0.1l1.6-1.2l0.5-0.2l0.5-0.2l0.8-0.4l0.7-0.5l0.7-0.3l0.5-0.1l0.8,0.8
	l0.4,0.2l0.6-0.2l1.6-0.9l0.601-0.1h0.899l1.4,0.2l0.8-0.1l1.7,0.7L810.5,140.9L810.5,140.9z">
		<title>Cotopaxi</title>
	</path>
<path id="ECU1280" name="Guayas" fill="#7C7C7C" stroke="#FFFFFF" stroke-width="2" stroke-linecap="round" stroke-linejoin="round" d="
	M708.4,278.8l-1,1.4l-2.101-0.3l-1.2,0.699l-1,0.301l-1.5-0.101l-1.3-0.3L699.4,280l-0.4-1.3l0.4-2.101l0.199-7.199l0.2-0.801
	l2-3.699l0.9-2.4l0.8-0.6l3.7-1.101l3.2-1.601l1.3-0.399l2.6,0.101l4.101,2.5l2.6,0.699l-0.3,0.801l-0.5,0.799l-0.7,0.5l-3,1.301
	l-0.2,0.6l-0.8,0.801l-0.2,0.299l-0.399,0.9l-0.4,0.9l-0.5,0.5h-0.2l-0.6,1.1l-0.7,1.5l-0.8,1.301l-0.3,1l-1,0.399l-0.801,0.899v1.4
	L708.7,277.9L708.4,278.8L708.4,278.8z M725.1,257.199l-1.399,0.9l-1.2-0.1l-0.3-1.301l0.899-2.299l1.2-3.301l1.601-2.9l0.699,1.601
	l1.4,0.5l0.7,1.3l-1.2,1.9l-2.1,1.1L725.1,257.199L725.1,257.199z M760.7,228.5l2.399,0.4l0.7,0.1l0.7-0.1l0.4-0.201l0.3-0.399
	l0.6-0.3h0.601l0.399,0.5l0.3,0.5l-0.199,2.4l-0.5,1.299l-0.9,1.101l-0.9,0.601l-1.3,0.8l-1.399,0.6l-1.2,0.3l-7,1.301l-0.7,0.3
	l-0.8,0.399l-1.7,1.301l-0.6,0.6l-0.5,0.801v1.399l-0.301,0.5l-0.1,0.5l0.5,0.899l-0.1,0.301l-2,1.3l-3.301,3.101l0.101,0.799
	l0.5,0.4l0.899,0.1l1.4-0.699l1.7-0.5l0.7,1.5l0.5,0.699l-0.101,0.701l-0.399,0.6l-1.3,1.4l-0.5,0.399l-1,0.7l-13,13.6l-0.5,1.4
	l-0.301,1.5l0.101,1.199l0.399,1.601l0.101,1.7v0.399l-3.3,4l-0.4,0.8l-0.2,0.5v1.2L727,282l-0.6-0.1l-4.5-0.2l-0.5-0.101l0.7-1.199
	l0.6-1.2l-0.6-1l0.199-1.4l0.801-2.3l0.1-1l1.8-6.1l1.3-2.301l0.101-0.399l0.6-1.2l0.2-1.4l1.3-3.5l0.7-1l1.8-1.899l0.5-1l0.1-1.5
	L731.2,250.6l-0.8-2.1l-0.2-0.3l-1.3,0.1l-0.7-0.1l-0.5-0.2l-0.7-1.1l-1.1-3.2l-0.801-1.2l-0.3-0.7l-0.2-0.899l0.101-3.5l-0.4-2.7
	v-0.8l0.3-1.301l0.101-0.8l-0.301-0.6l-0.8-1l-0.2-0.2l-0.1-0.4L723,228.9l0.1-0.7l0.3-0.7l0.301-0.5l0.199-0.5l-0.5-0.8l0.9-0.899
	l1-0.301l0.7-0.5l0.3-1.4l0.5-0.6l0.9-0.5l1-0.6l0.399-1.301l-3.5,2L725.2,221.9l-0.101,0.5l-0.1,1.1l-0.4,0.1l-1.899,0.201
	l-0.5,0.5L722.1,224.7l-0.5,1.5l-0.5,2.399l-0.1,1.7l0.4,1.7l1.8,3.2l0.2,1.8l-1,11.6L721.8,251l-0.399,0.7l-1.601,1.8l-0.6,0.4
	l-1,0.3l-2,1.2l-0.9,0.1l-0.6-0.3l-0.3-0.8l-0.5-0.101l-1.3,0.101l-0.4-0.101l-0.8-0.601l-0.3-1l0.8-0.899l1.8-1.2l0.5-1.3
	l0.3-0.899l0.6-0.5l1.601-0.2l0.399,0.3l0.301,0.5l0.5,0.4l0.699,0.1l0.5-0.4l0.301-0.5l-0.101-0.6l-0.3-0.6l-0.3,1.199l-0.8-0.199
	l-1.4-1.4l-1.3,0.2l-1.2,0.6l-0.8,0.2l-0.4-0.8l0.3-1.3l1.101-2.601l0.3-1.399l0.2-0.7l0.5-0.3l0.7-0.101l0.6-0.3l0.5-0.5l1.2-1.9
	L717.6,237.7l-0.3,0.2l-0.6,0.699l-0.5,0.2l-1.2-0.101h-0.5l-0.7,0.5l-0.5,0.701l-2.6,6.699l-4.1,5.7l-1.801,2l-1.899,0.8
	l-0.5,0.801l-0.4,0.5l-0.6,0.399h-0.5l-0.3-0.3L700,255.699l-0.8-0.299l-0.6,0.399l-0.2,1l0.2,1.2l0.199,0.199l1.601,1.601l0.2,0.5
	l0.1,0.7l-0.1,1.3L700,262.8l-1.3-0.2l-2.5-1l-2.6-2.1L692.8,259l-0.8-0.7l-0.399-0.3l-0.301-0.1l-1.1-0.201l-0.5-0.1l-2.3-1.5
	l-4.5-5.199l4.3-4.101l3.6-2.7l5.101-1.199l2.899-1.701l2.601-4l1-6.1l0.1-5.199l-2.3-3.601l-2.1-2l-3.5-2.101L689.9,217
	l-3.101-1.801l-1.699-2.799L684.5,209.8l2.5,0.101l1.7-0.201l0.5-0.199l0.3-0.301l0.2-0.799l0.1-1l0.101-0.601l0.5-0.7l0.5-0.6
	l0.399-0.6l0.4-0.701l0.4-0.6l0.699-0.5l0.601-0.3l0.8-0.399l0.4-0.301l0.6-1l0.4-0.5l0.5-0.2l0.5,0.299l0.8,0.601l0.399-0.101
	l0.301-0.399l0.8-0.5l2.3,0.2l0.9-0.2l0.199-0.6l-0.5-1.8l-0.1-0.5l0.1-0.8l-0.199-0.2l-1-0.3l-0.5-0.3l-0.801-0.6l-0.6-0.8
	l-0.4-0.5l0.101-0.4l3.6-0.5l2-1.3l0.3-0.6v-0.4l-0.699-1l-0.2-0.6l-0.2-0.8v-0.7l0.3-1.5l0.3-0.7l0.4-0.5l0.6-0.3l1-0.6l1.301-0.3
	l0.3-0.3l0.1-0.4l-0.2-1.4l0.101-1.1l0.399-0.9l0.7-0.5l1.3-0.6l2.301-1.9l0.5-0.7l1.199-3.2l0.5-1.9l0.5-1.2l0.4-1.3l0.4-0.9
	l0.6-0.6l0.4-0.3l0.199,0.2l-0.199,0.9l0.1,0.3l0.3,0.1h1l0.9,0.2l1.1-0.3l0.9-0.5l3-2.4l0.7-0.8l1-1.6l0.8-0.9l0.5-0.6l0.3-0.6
	l0.2-0.9v-0.9l0.3-0.3l0.9-0.6l0.3-0.6l0.3-0.7l0.3-0.7l2.2-3.2l0.6-0.5l0.7-0.4l1-0.3l3.8-0.6l2-0.5l2.101-0.3h0.899l0.801,0.5
	l0.3,0.9l-0.3,1.9l-0.9,2.6v0.6l0.3,0.8l-0.4,0.5l-0.899,0.6l-0.4,0.5l-0.5,1.2l-0.399,2l-0.301,0.6l-0.399,0.4l-0.5,0.3h-0.5
	l-0.601,0.2L737.7,164l-0.2,0.3l-0.6,0.7l-0.601,0.9l-0.399,0.4l-0.9,0.1l-0.4,0.1l-0.2,0.4l-0.199,0.7l-0.301,0.8l-0.399,0.2
	l-0.601,0.2l-0.3,0.1l-0.1,1l-0.6,0.4l-0.601,0.1l-0.5,0.3l-0.2,0.3l-0.1,0.4v1.1l-0.3,1.2l-3.3,6.3l-0.5,0.7l-1.101,1.1l-0.7,1.1
	l-0.3,0.6l-1,2.7l-0.1,0.7l-0.3,3.7l0.1,0.7l0.8,2.6l-0.1,0.4l-0.4,1v0.7l0.101,0.9l0.199,0.6l0.2,0.4l4.9,2.5l0.8,0.799l0.7,1.201
	l0.4,1.299l0.6,0.9l1.5,2l0.4,0.801l0.8,2l1.3,2.5l0.4,1.299l0.5,0.5l1.3,0.301l2-0.301l3.1-1.199l1-0.1l1.3,0.199l1.2,0.6
	l2.7,1.801l1.3,0.699l0.7,0.4l1.8,1.4l0.7,0.8l4.5,7.399L760.7,228.5L760.7,228.5z">
		<title>Guayas</title>
	</path>
<path id="ECU1281" name="Los Rios" fill="#7C7C7C" stroke="#FFFFFF" stroke-width="2" stroke-linecap="round" stroke-linejoin="round" d="M769.5,133
	l-0.6,2.7l-4.101,9.6l-0.899,1.6l-0.4,0.5l-1,0.6l-0.5,0.5l-0.5,0.5l-1.6,3l-0.7,0.6l-0.7,0.5l-0.6,0.6l-0.5,0.9l-0.801,2.1
	l-0.199,1v1.1l0.1,1l-0.9,4.2l-0.1,1.5v1.4l0.5,0.9l1.6,2.1l0.4,1.9l-2.8,1.3l-1.101,1.5l-1.5,2.3l-0.899,1l-0.101,0.8l0.2,0.3
	l0.4,0.1l0.5-0.2l0.4-0.4l0.8-1.1l0.399-0.3l0.301-0.1l0.399,0.3l0.601,1.1l1.699,1.2l0.101,0.3l-0.2,0.4l-0.7,0.4H756l-0.3,0.4
	l-0.1,0.6l-0.101,4.6l0.2,1.3l0.6,1l0.801,0.8l1.899,1.3l0.5,0.5l0.3,0.7l-0.1,0.8l-0.3,0.9l-0.601,1l-0.199,0.2H758.3l-0.699-0.3
	l-0.301,0.1l-1.699,1.8l-0.4,0.4l-0.8,0.5l-0.2,0.4l0.2,0.3l1.2,0.4l0.199,0.3l0.301,0.2l0.399-0.1l0.4,0.2l0.399,0.6l0.7,1.3
	l1.8,2.699l0.101,0.5l-0.3,1.101l0.1,0.7l0.2,0.699l0.399,0.801l0.5,0.699l0.2,0.601l-0.1,0.899L760.3,210.7l-1,4L759,215l-0.7,0.5
	l-0.199,0.5v0.5L760,219l2.101,3.301l0.399,0.899v0.5L762,224.6l-0.399,2l-0.9,1.9l-3-2.8l-4.5-7.399l-0.7-0.801l-1.8-1.4L750,215.7
	l-1.3-0.7l-2.7-1.8l-1.2-0.601l-1.3-0.199l-1,0.1l-3.1,1.2l-2,0.3l-1.3-0.3l-0.5-0.5l-0.4-1.3l-1.3-2.5l-0.8-2l-0.4-0.801l-1.5-2
	l-0.6-0.899l-0.4-1.3l-0.7-1.2l-0.8-0.8l-4.9-2.5l-0.199-0.4l-0.2-0.6L723.3,196v-0.7l0.4-1l0.1-0.4l-0.8-2.6l-0.1-0.7l0.3-3.7
	l0.1-0.7l1-2.7l0.301-0.6l0.699-1.1l1.101-1.1l0.5-0.7l3.3-6.3l0.3-1.2v-1.1l0.101-0.4l0.199-0.3l0.5-0.3l0.601-0.1l0.6-0.4l0.101-1
	l0.3-0.1l0.6-0.2l0.4-0.2l0.3-0.8l0.2-0.7l0.2-0.4l0.399-0.1l0.9-0.1l0.399-0.4l0.601-0.9l0.6-0.7l0.2-0.3l0.4-0.4l0.6-0.2h0.5
	l0.5-0.3l0.4-0.4l0.3-0.6l0.399-2l0.5-1.2l0.4-0.5l0.9-0.6l0.399-0.5l-0.3-0.8v-0.6l0.9-2.6l0.3-1.9l-0.3-0.9L742.8,150H741.9
	l-2.101,0.3l-2,0.5l1.2-2.5l0.8-4.1l0.5-1l0.601-0.7l0.5-0.3l0.6-0.2l0.601-0.4l0.199-0.3l0.7-2.1l1.3-2.7l0.5-1.2l0.801-2.8
	l1.8,0.1l1.3,0.2l3.2-0.2l1.399,0.3l0.5,0.3l-0.6,0.8l-0.3,0.5l0.2,0.8l0.3,1l0.1,0.9l-0.2,0.7l-0.399,0.8l-0.2,0.5l0.3,1.1l0.3,0.5
	l0.601,0.4l0.7,0.3l0.8,0.1h0.7l0.8-0.2l0.6-0.5l0.7-0.7l0.8-0.8l0.7-0.5l1.6-0.8l0.7-0.5l4.4-4.4l0.899-0.5l0.601-0.1L769.5,133
	L769.5,133z">
		<title>Los Ríos</title>
	</path>
<path id="ECU1282" name="Manabi" fill="#7C7C7C" stroke="#FFFFFF" stroke-width="2" stroke-linecap="round" stroke-linejoin="round" d="M739.3,101
	l-0.5,0.5l-0.1,0.4l-0.101,0.7l0.2,1.2l0.3,0.6l0.5,0.4l0.801,0.3l0.5,0.5l0.699,0.5l0.5,0.4l1.5,1.8l1.5,1.5l0.4,0.2l2.1,0.6
	l0.4,0.1l1.4-0.1l0.5,0.2l0.3,0.5l-0.1,1L750.5,123l-0.2,0.9l-0.399,0.9l-1.9,2.9l-0.1,1.3l-0.101,0.5l-0.699,1.8l-1,1.2l-0.801,2.8
	l-0.5,1.2l-1.3,2.7l-0.7,2.1l-0.199,0.3L742,142l-0.6,0.2l-0.5,0.3l-0.601,0.7l-0.5,1l-0.8,4.1l-1.2,2.5l-3.8,0.6l-1,0.3l-0.7,0.4
	l-0.6,0.5l-2.2,3.2l-0.3,0.7l-0.3,0.7l-0.3,0.6l-0.9,0.6l-0.3,0.3v0.9l-0.2,0.9l-0.3,0.6l-0.5,0.6l-0.8,0.9l-1,1.6l-0.7,0.8l-3,2.4
	l-0.9,0.5l-1.1,0.3L718,168h-1l-0.3-0.1l-0.1-0.3l0.199-0.9l-0.199-0.2l-0.4,0.3l-0.6,0.6l-0.4,0.9l-0.4,1.3l-0.5,1.2l-0.5,1.9
	l-1.199,3.2l-0.5,0.7l-2.301,1.9l-1.3,0.6l-0.7,0.5l-0.399,0.9l-0.101,1.1l0.2,1.4l-0.1,0.4l-0.3,0.3L705.8,184l-1,0.6l-0.6,0.3
	l-0.4,0.5l-0.3,0.7l-0.3,1.5v0.7l0.2,0.8l0.2,0.6l0.699,1v0.4l-0.3,0.6l-2,1.3l-3.6,0.5l-0.1,0.4l0.399,0.5l0.601,0.8l0.8,0.6
	l0.5,0.3l1,0.3l0.2,0.2l-0.101,0.8l0.101,0.5l0.5,1.8l-0.2,0.6l-0.9,0.2l-2.3-0.2l-0.8,0.5l-0.3,0.399l-0.4,0.101l-0.8-0.601
	l-0.5-0.3l-0.5,0.2l-0.4,0.5l-0.6,1l-0.4,0.301l-0.8,0.4l-0.6,0.299l-0.7,0.5l-0.4,0.601l-0.4,0.7l-0.399,0.6l-0.5,0.6l-0.5,0.701
	l-0.101,0.6l-0.1,1l-0.2,0.8l-0.3,0.3l-0.5,0.2l-1.7,0.2l-2.5-0.1l-1.2-0.301l-1-0.5l-0.5-0.6l-0.1-0.6v-0.5l0.4-1.101l0.7-1.101
	l0.1-0.3l0.2-1.8L683,202.5l-0.199-0.5L682,201.3l-0.1-0.399l0.1-0.9l-0.3-0.5l-0.8-0.5l-1.8-0.2h-1L676,199.5l-1.199,0.2l-4.2-0.2
	l-0.9,0.3h-0.399l-1.101-0.1l-1.6,0.3l-1.101-2.5l-0.8-1.1l-0.3-0.8l-0.1-0.8l0.3-0.7l2.1-1.5l-0.3-1.4v-1.7l1.3-1.2l0.7-0.1h1
	l0.2-0.8v-0.9l0.1-1.1l0.3-1l-0.199-1.4l0.199-0.9l1.101-0.5L671,180.2l-1.8-2.5l-3.6-4.2l-2.8-5.1l-1.3-3l-0.801-1.8l0.4-1.2
	l0.7-0.7l0.899-0.7l0.801-0.9l0.899-1.1l0.7-0.9l0.7-0.8l0.2-0.5l0.699-0.3l0.801,0.3h0.8l0.899-0.6l0.801-0.3l0.899,0.2l1.4-0.5
	l-0.2,0.5l1.1,0.5l0.9,0.1l0.7-0.6l0.5-0.2l0.399-0.6l0.7-0.2l0.601,0.9l0.5,0.1l1.1,0.1l1.4-0.6l1.3-1.1l1.399-1.4l0.801-3.7l1-5.1
	l1.1-2.9l1.4-2.7l0.699-1.8l0.301-0.3l0.5-0.4l0.899-0.1l0.7-0.2l0.1,1.5l0.9,1.2l1.6,0.7l1.5,0.2l3.2,0.1v-0.7l-1.6-0.5l-1.8-0.4
	h-1.2l-0.9-0.6l-0.6-1.7l-0.8-1.4l-0.8-0.3l-0.5-0.6v-1.5l-0.7-1.6l-0.2-1.8l-0.8-1.8l-1.101-1.3l-0.699-2.5l0.6-0.9l1.3-0.1
	l1.9-1.6l1.8-2.8l0.6-1l0.2-0.8l0.5-1.3l0.5-1l1.3-0.4l1.601-2.5l1.1,0.9l1.2-0.6l1.5-1.1l1.6-1.2l3.601-3.9l2.8-3.6l1-1.3
	l0.399-1.2l0.101-0.7l0.3-0.2l1.7-0.6l0.899-2.2l0.5-2l0.301-3.1l-0.101-1.5l-0.399-2.5l-0.2-4.5l0.6-1.6v-0.5l0.101-0.2l0.699,0.3
	l0.301,0.3l0.199,0.4l0.301,0.9h0.399l0.101-0.7l0.199-0.5l1.601,3.6l0.7,1.1l0.899,0.3l0.8,0.1l0.4-0.1l0.9-0.8l0.3-0.4l0.6-1.2
	l0.101-0.7l0.199-0.3l0.4-0.1l2,0.1l1-0.1l1.1-0.2l1.2-0.5l0.601-0.4l1.199-1.4l0.7-0.4l0.7-0.3l0.8-0.1l0.601,0.3l0.6,0.4l0.5,0.5
	l0.2,0.5l-0.101,0.3l-0.6,0.6l-0.4,0.8v0.4l0.101,0.5l0.399,0.4l2.801,1.7l0.3,0.4l0.1,0.2l-0.2,0.4l-0.399,0.4l-0.4,0.2l-0.6,0.8
	l-0.3,0.4l-1.101,1.6V89l0.9,0.8l0.6,0.2l0.601-0.2l0.5-0.1L735.7,90l0.101,1l0.2,0.5h0.3l0.7-0.4l0.3-0.2l0.5,0.3l0.399,0.4
	l1.2,1.1l0.8,0.3h0.4l0.3,0.4l-1.6,1.7l-0.2,0.5l-0.1,0.7l-0.301,0.3l-0.399,0.2l-0.4,0.6v0.4l0.2,0.6v0.7l0.2,0.3L739.3,101
	L739.3,101z">
		<title>Manabi</title>
	</path>
<path id="ECU1284" name="Chimborazo" fill="#7C7C7C" stroke="#FFFFFF" stroke-width="2" stroke-linecap="round" stroke-linejoin="round" d="
	M813.1,191.1l-0.6,0.9l-0.1,0.5v0.8l0.6,1.7l0.1,0.6l-0.1,0.6l-0.2,0.5l-0.5,0.6l-0.6,0.4l-1.4,0.8l-0.5,0.5l-0.399,0.5l-0.5,0.6
	l-1.101,1.1l-0.3,0.601l-0.1,0.6v1.3l0.1,1l0.2,1l0.3,0.5l0.6,0.7l0.2,0.5l0.2,1.4l0.4,1.799L809.3,211.4L806.9,214l-1.601,2.6
	L805,217.2l0.1,0.7l0.2,0.5l0.4,0.4l0.5,0.299l0.4,0.601l0.199,0.7v1.5l0.2,0.699l0.601,1.201L807.5,224.2l-0.8,0.601l-0.9,0.399
	l-0.8,0.7l-0.6,1l-0.4,1.6l0.2,2.4l0.3,0.6v0.301l-0.3,0.5l-1,0.799l-0.6,0.5l-0.2,0.801v0.699l-0.3,0.701l-0.4,0.6l-2,1.5l-1.2-0.6
	L791,238.2l-2.2,0.5l-1.5,0.5L785.9,240.6l-1,0.9l-2,1L781,243l-1.7,0.1L777.9,243l-0.7-0.4l-1.2-0.799l-1.3-0.5l-0.8-0.601
	l-0.9-0.8l-1.9-2.7l-0.5-0.5l-1-0.601l-0.3-0.5L769,234.7l-0.3-0.2l-0.601-0.4L767.7,233.9l-0.5-0.9l-0.3-1.6l3.199-1.7l2.2-2.101
	l1.101-1.699l0.3-0.7l0.1-0.7l-0.1-0.6l-0.3-0.5l-0.2-0.6V222.1l1.5-7.699v-0.6l-0.4-1.301l-0.1-1.9l0.2-2.699v-1l0.199-0.6
	l0.301-0.5l0.5-0.4l0.699-0.4l2.2-0.3l0.8-0.2l2.101-1.9l1.2-1.799l0.6-1.5l0.2-1.6l-0.101-2l0.101-1.4l0.2-1.4v-1l-0.301-0.8
	l-0.899-1.5l-0.3-0.7l-0.2-0.6l0.1-1.2l1.2-0.4l1.9-1.3l0.899-0.3l0.8-0.1l0.7,0.2l0.9,0.4l1.8,1.3l1.2,0.7l1.4,0.6l3.1,0.7h1.6
	l1.4-0.2l1.1-0.4l1.101-0.1l0.899,0.1l1,0.2l0.7-0.2l0.5-0.6l0.4-1l0.5-0.7h0.7l0.8,0.3l1.399,1l0.801,0.3l1.1,0.3l0.7,0.3l0.6,0.4
	l0.8,0.3l0.4,0.2l0.2,0.2l0.2,1.1L813.1,191.1L813.1,191.1z">
		<title></title>
	</path>
<path id="ECU1285" name="Morona Santiago" fill="#7C7C7C" stroke="#FFFFFF" stroke-width="2" stroke-linecap="round" stroke-linejoin="round" d="
	M913.2,252.9l-0.9,0.6L899.4,258l-15,5.3l-14.9,5.2l-7.5,2.6l-18.9,6.601l-1.1,0.6l-4.4,3.9l-6,8L828.7,292.6l-0.801,0.9l-1.8,3.6
	l-0.8,1l-2.1,1.7l-0.7,0.8l-0.1,1.301l0.699,1.1l1,0.7l0.7,0.8l0.101,1.7l-0.5,1.2l-0.9,0.399l-1.1,0.2l-0.9,0.8l-0.8,0.3l-0.601-1
	l-0.8-3.899l-0.5-0.9l-0.7-0.6l-2.6-0.7l-1.2-0.2l-1,0.3l-0.7,1.2l0.101,0.4l0.3,1.1v0.7l-0.4,2.6l-0.8,2.4l-7.5-0.1l-4.3,0.8h-1.2
	l-2.3-0.2l-0.7,0.1l-0.6,0.101l-0.5,0.5l-0.601,1.1l-0.3,0.4l-0.399,0.3l-0.4-0.1l-1-0.5l-0.6-0.201l-2-0.199l-2.5-0.7l-1.7-0.3
	l-0.601-0.301L784.2,310.9L784,310.1l-0.2-0.399l-0.5-0.4l-0.5-0.7l-0.3-1l-0.1-1.1l-0.2-0.8v-0.8l0.2-0.4l1.3-1.2l0.1-0.399V302.6
	l-0.2-0.5L783.2,301.7l-4.9-3.5L778,297.1l0.1-0.399l0.3-0.601l7.301-5.899l1.199-1.2l2.2-0.7l2.101-1.1l1.399-1.2l1.601-1.7l0.6-1
	l0.2-1.101l-0.101-0.899V280.4l0.2-1l1.4-3l0.2-0.601l0.399-1l2.8-4.601l0.301-0.899v-0.5l-0.2-0.601l-0.4-0.6l-0.5-0.6l-0.399-0.5
	l-0.2-0.4l0.1-0.4l1.9-3.399l0.5-0.7l0.6-0.5l6.601-3.4l0.6-0.5l0.3-0.5v-0.5l-0.399-1.1l-0.4-0.4l-1.9-1.399l-0.3-0.101l-0.6-0.1
	l-0.5,0.2l-0.601,0.3l-0.6,0.6l-0.4,0.601L803.2,255.4L803.1,256.1l-0.3,0.301l-0.4,0.1l-0.5-0.301l-0.5-0.399l-0.199-0.601
	l-0.101-0.6l0.4-1.8l0.399,0.3h0.4l0.4-0.3l0.6-0.7l1.5-2.199l0.2-0.5l0.1-0.5v-1.201l0.3-1.1l-0.1-3.4l0.2-1.199l-0.4-0.7
	l-0.899-0.7l-3.7-1.6l-0.8-0.5v-0.6l2-1.5l0.399-0.601l0.3-0.7V234.4l0.2-0.801l0.601-0.5l1-0.8l0.3-0.5v-0.3l-0.3-0.6l-0.2-2.4
	l0.399-1.6l0.601-1l0.8-0.701l0.9-0.399l0.8-0.601l0.1-0.399l-0.6-1.2l-0.2-0.699v-1.5l-0.2-0.701l-0.399-0.6l-0.5-0.3l-0.4-0.399
	l-0.2-0.5l-0.1-0.701l0.3-0.6l1.6-2.6l2.4-2.6l0.1-0.801L809,208.8l-0.2-1.399l-0.2-0.5l-0.6-0.701l-0.301-0.5l-0.199-1l-0.101-1
	V202.4l0.101-0.601l0.3-0.601l1.1-1.099l0.5-0.6l0.4-0.5l0.5-0.5l1.399-0.8l0.601-0.4l0.5-0.6l0.2-0.5l0.1-0.6L813,195l-0.601-1.7
	v-0.8l0.101-0.5l0.6-0.9l1-1.4l0.7-0.5l1.1-0.6l0.9-0.2l2,0.3h1.5l0.8-0.3l1-0.4l0.6-0.5l1.2-1.2l2.5,0.6l1.5,1.1l0.8,0.9l0.801,1
	l0.5,0.8l1.8,4.7l0.5,2l0.6,1.4l0.7,0.7l3.6-0.7l1.101,0.1l0.899,0.6l0.7,1.3l0.8,3.899l1.101,1.801l0.199,0.5v1.3l0.2,0.8l0.9,1.5
	l0.3,0.801l0.1,1.799l0.2,0.9l0.601,0.7l1,0.601l2.399,0.5l1.101,0.5l0.8,0.699l0.3,0.9l0.3,1l0.4,0.9l0.7,0.699l1,0.4l2.1,0.5
	l16.3,7l13.7,8.8l1,0.3l0.9,0.4l0.699,0.9l1.101,1.899l2.1,2.5l0.5,0.899l0.8,0.701l0.301,0.799l0.8,2l1.399,1.701l2,1.399l2.5,0.7
	l2.601-0.1l1.8-0.601l0.7,0.101l1,0.699l0.8,0.4l2,0.4l2.5,1.299l1.3-0.399l1.2-0.601L913.2,252.9L913.2,252.9z">
		<title></title>
	</path>
<path id="ECU1286" name="Orellana" fill="#7C7C7C" stroke="#FFFFFF" stroke-width="2" stroke-linecap="round" stroke-linejoin="round" d="
	M996.7,138.4l-0.8,0.4l-0.601,0.4l-0.3,0.7l0.1,0.6l0.2,1.1l0.101,0.6l-0.101,0.6l-0.399,1.1v0.7l2.6,9v0.6l-0.1,1l0.1,0.5l0.5,0.7
	l0.6,0.5l0.4,0.6v0.4h-0.5h-2.8l-2.601,0.3h-1.3l-0.6-0.5l-0.4-0.6l-0.8-0.9l-1.7-1.5l-0.3,0.5l-2.6,9.9l-6.2,24.5l-0.8,2.1
	l-0.4,0.6l-0.7-1.2l-0.2-1.3l-0.399-0.5l-0.4-0.3h-0.5l-0.6-0.2l-0.4-0.4l-0.399-0.2H974.1l-0.399-0.3l-1.7-0.7l-0.6-0.1l-0.301-0.2
	l-0.3-0.6h-0.1l-0.5,0.4l-0.4,0.2l-0.2-0.2l-0.1-0.5l-0.6-0.8l-0.801-1.5l-0.3-0.3l-0.7,0.1l-0.899-0.3h-0.9l-0.2-0.2l-0.5-0.4
	l-0.5-0.3l-0.399-0.1l-0.7,0.2l-0.7-1.6l-0.4-0.2l-1.399-0.4l-0.3-0.3l-0.101-0.3l0.2-0.5l-0.2-0.1l-0.7,0.1l-0.199,0.4l0.1,0.5
	l-0.7,0.3l-0.5-0.1H957l-1-0.2l-0.8-0.4l-0.4-0.4l-0.3-0.2h-0.7l-1-1l-0.7-0.2l-0.8-0.1l-1-0.5l-0.6,0.2l-0.101-0.1v-0.7l-0.3-0.6
	l-0.2-0.1l-0.3,0.3l-0.4,0.1h-0.6l-1-0.5h-0.9l-0.3,0.3l-0.1-0.3h-0.3l-0.8,0.7l-0.4,0.4h-1.2l-0.5-0.3l-1.4,0.1l-0.5-0.2h-0.6
	l-0.6,0.4l-0.3-0.1l-0.301-0.5h-0.1l-0.7,0.7h-0.6l-0.5,0.4l-0.3,0.5l-0.301,0.1l-0.1-0.5l-0.7-0.3l-0.899-0.1l-1.5-0.4l-0.801-0.1
	l-0.399-0.2l0.2-0.5l-0.4-0.7l-1.1-0.1l-0.801-0.5h-0.3l-0.8,0.3l-0.7,0.1l-0.6-0.1l-0.6,0.1l-0.2-0.2v-0.6l-0.4,0.2l-0.5,0.1
	l-0.3-0.2l-0.4-0.5l-0.1-0.7l-0.4-0.6l-0.6-0.4l-1-1.4l-0.4-0.9l-0.1-1.3v-2.3l0.2-0.8v-0.9l-0.2-0.7l-0.8-0.9l-0.8-0.3l-1-0.3
	l-1-0.1l-0.9,0.1l-1.5,0.4l-1.1,0.2l-0.301,0.2l-0.5,0.6l-0.3,0.3l-0.5,0.1l-0.6,0.1l-1.2,0.3l-1.2,0.2l-1.399,0.1l-0.4,0.1
	l-0.9,0.4l-0.5,0.1l-0.899-0.2L905.8,165l-0.6-0.1l-0.4,0.1l-1.1,1.1l-0.3,0.5l-0.2,0.6l-0.3,1.4l-0.4,0.4l-1.1,0.1l-5.7-2.4
	l-4.8-1.1l-0.7-0.3l-0.4-0.7l-0.3-1.6l-0.3-0.9l0.1-0.4l1.2-1.4l0.5-1.3l-0.5-0.7l-0.3-0.3l-0.3-0.5l0.2-0.3l1-1l0.399-0.5l-0.1-0.4
	l-0.3-0.3l-0.801-0.2l-2.5-0.4l-1-0.4l-2.699-1.9l-0.5-0.2l-0.5-0.2l-0.601-0.3l-0.399-0.5l-0.2-1l0.1-0.9l0.4-1l0.7-1l2.899-2.7
	l0.5-0.7l0.3-0.6l-0.199-0.4l-0.4-0.3h-0.8l-0.8,0.5l-0.801,0.4l-2.699,2.5l-1.4,2.9l-0.8,1l-0.5,0.2l-2.101,0.8l-9.399,4.5
	l-0.7,0.5l-1.1,0.3l-0.2,0.1l-1,0.4l-1.101,0.3l-1.5,0.1l-1.399-0.2l-0.7-0.5v-0.5l0.6-0.5l0.5-0.7l0.5-0.8l1.4-3.4l0.1-0.8
	l-0.5-1.9l0.101-0.9l0.3-1.1l0.5-1l0.4-0.7l0.8-1.1l0.2-0.6v-0.8l-0.5-1.5l-0.301-0.6l-0.5-0.4l-0.8-0.5l-0.3-0.4l-0.7-1.3l-1.6-2.1
	l-0.7-0.6l-0.6-0.3l-0.601-0.1l-0.7-0.4l-0.199-0.5l0.1-0.5l0.4-0.4l0.5-0.5l1.899-1.1l0.4-0.4l0.2-0.5v-0.7V128l0.199-0.5l0.5-0.1
	l0.801,0.3l2.6,1.6l1.3,0.6l1.5,0.5l1.101,0.2l0.8-0.1l0.7-0.3l0.5-0.5l1.399-2.3l0.7-1.5l0.2-0.4l0.3-0.2h0.3l0.8,0.2l0.2-0.1
	l0.2-0.4v-0.9v-0.5l0.2-0.4l1.8-0.8l0.6-0.3l0.5-0.5l0.301-0.5l-0.101-1l0.101-0.4l0.699-0.6l0.2-0.5v-0.9l-0.6-1.1l0.2-0.6
	l0.199-0.8l-0.199-0.4l-0.7-1l-0.8-1l-0.4-0.6l-0.3-0.7v-0.6l0.2-0.8l0.1-1.7l0.2-0.6l-0.601-4.2l0.9-0.6l0.8,0.2l1,0.3l1.601,0.8
	l1.8,1.2l0.6,0.2l0.7-0.2l0.7-0.2l0.899-0.2l1.101,0.2l3.3,0.9l1.5,0.1l1.3-0.2l0.8-0.5l0.7-0.5l0.9-0.4l0.899-0.4l1.5-0.2l0.9,0.2
	l0.8,0.5l0.4,0.5l0.6,1l6.101,7.3l1.8,1.6l0.3,0.5l0.2,0.9l1.1,1.6l0.5,0.6l1.101,1.7l0.699,0.6l3.301,2.4l0.5,0.6l0.3,0.5l0.7,0.9
	l1.3-0.8l1.399-0.4l1.301,1.7l3.1,2.4l1.1,0.5l2.4-0.1l0.9,0.3L928,130l0.7,0.5l1.4-0.6l2.399-1.8l0.5-0.2l1.9-0.6l1.3-0.6l0.5-0.2
	l4.6-0.4l5.601,0.4l0.3,0.3l0.4,0.6l0.3,0.8l0.2,1.4l0.3,0.4l1.2,0.6l2.399,1.7l1.4,0.8l1.3,0.3l1.4,0.1l0.699,0.1l0.301-0.2
	l0.1-0.2l-0.4-0.7l-0.3-0.7l-0.5-4.9V126l0.2-0.7l0.7-0.3l1-0.3l1.899,0.1l1.101,0.2l0.8,0.5l0.7,0.5l0.7,0.2l0.5-0.1l0.6-0.2
	l0.5-0.1h1.4l0.699-0.1l1.2-0.4l0.5,0.1l0.5,0.4l0.3,0.4l0.5,0.8l0.4,0.4l0.7,0.4h0.7l0.899-0.3l0.5-0.2l0.601-0.1l0.6,0.3l0.7,0.4
	l1.3,0.6l0.7,0.4l0.3,0.3l0.3,0.7h0.2l0.7-0.3l0.3,0.5l0.1,0.6l0.4,0.8l1.1,0.9l1.9,0.6h0.9h2.7l0.699,0.3l0.601,0.4l0.5,0.1h0.899
	l0.301,0.2l0.3,0.5l0.3,1.1l0.4,0.4l1,0.2l0.899,0.4l2.101,0.6h0.699l0.801-0.2l0.3,0.3L995.5,138l0.2,0.5L996.7,138.4L996.7,138.4z
	">
		<title></title>
	</path>
<path id="ECU1287" name="Pichincha" fill="#7C7C7C" stroke="#FFFFFF" stroke-width="2" stroke-linecap="round" stroke-linejoin="round" d="M774,84.2
	l1,2.3l0.6,0.4l0.9,0.4l1,0.3l0.9-0.1l0.8-0.2l1.2-0.1l2.399-0.7l5.101-0.6L789.3,86l6,1.3h1.3l0.801-0.1L798,87l3.1-0.4l1.301-0.3
	h0.8l3.2-0.6l3.1-0.2l1.6,0.2l1,0.4l0.4,0.5l0.2,0.6l0.1,0.7l-0.1,0.6l-0.3,1l-0.101,0.4l0.101,0.3l0.399-0.1l1-1l0.7-0.3l0.6,0.1
	l0.601,0.5l1.3,1.1l0.9,0.7l1.1,0.5l1.6,0.5l1.5-0.1l1.601-0.3l2.699-1.3l1-0.6l1.4-1.1l0.7-0.4h1l6.9,2.1l-1.5,2.5v0.3l0.3,0.2
	l0.7,0.2l0.699,0.2h0.601l1.5,0.8L840.6,95l0.801,0.2l0.8,0.5l0.5,0.6l0.2,0.6l0.199,0.9l0.2,0.2l0.8,0.2l-0.8,1.4l-0.7,0.5
	l-4.199,2.2l-2.2,0.7l-0.4,0.4l-0.2,0.5l-0.1,1.6l-0.2,0.6l-0.3,0.3l-0.3,0.2l-0.4,0.3l-0.6,1.1l-0.3,0.2l-0.601,0.1l-1.3-0.4H831
	l-0.3,0.1l-0.3,1.1l-0.7,1.2l-0.5,0.5l-0.7,0.3H828l-0.3-0.1l-0.601-0.6l-0.5-0.2h-0.5l-1.399,0.5l-1.101,0.2l-0.399,0.4l-0.101,0.5
	l0.101,0.6l-0.2,5.4l-0.4,1.4l-0.8,1.4l-1.6,2.2l-0.7,1.2l-0.3,0.8l0.899,1.7l-0.1,0.6l-0.3,0.8l-0.7,1.2l-0.3,0.7l-0.1,0.6v0.6
	l-0.101,0.8L818,133l-0.7,0.9l-1.1,1.1l-0.6,0.8l-0.301,0.8l-0.199,1.6l-0.2,0.8l-0.4,0.5l-0.5,0.3l-1.5,0.3l-0.7,0.2l-1.3,0.6
	l-3.8-4.1l-1.7-0.7l-0.8,0.1l-1.4-0.2H801.9l-0.601,0.1l-1.6,0.9l-0.6,0.2l-0.4-0.2l-0.8-0.8l-0.5,0.1l-0.7,0.3l-0.7,0.5l-0.8,0.4
	l-0.5,0.2l-0.5,0.2l-1.6,1.2l-0.5,0.1l-0.4-0.2l-0.4-0.5l-0.199-0.6l-0.101-1l-0.6-1.3l-1-1.4l-3.8-2.6l-0.801-0.7l-0.199-0.7
	l-0.4-1.5l-0.2-0.5l-0.7-1.1l-0.899-1.6l-2.2-2.9l-0.2-0.4v-0.7l-0.2-0.4l-0.5-0.4l1.8-2.8l7.601-0.8l1.1-4.1l-3-3.4l-5.7-3.1
	l-1.8-1.8l-10.6,0.3l-0.4-4.9l-12-0.4l-3.3-2.4l1.2-2.9L755,93l0.7-1.7l0.7-1.1l0.199-0.4v-0.3l-0.199-0.4l-0.9-0.9l-1.6-1.1
	l-0.2-0.4v-0.4l0.399-0.4l0.5-0.4l1.2-0.5l0.8-0.5l1.301-1.1l0.5-0.3l0.8-0.3l0.6-0.3l1.7-1.2l0.7-0.1h0.899l1.4,0.1l1.5-0.1
	l6.3,1.4l0.8,0.5L774,84.2L774,84.2z">
		<title></title>
	</path>
<path id="ECU1288" name="Pastaza" fill="#7C7C7C" stroke="#FFFFFF" stroke-width="2" stroke-linecap="round" stroke-linejoin="round" d="M978,192.3
	l-1,1.1l-3.2,3l-11.3,13.2l-6,7l-8.9,10.4l-7.1,5.4L937,235.1l-21.1,16.2l-2.7,1.601l-0.8-0.2l-1.2,0.6l-1.3,0.4l-2.5-1.3l-2-0.4
	l-0.801-0.4l-1-0.699L902.9,250.8L901.1,251.4l-2.6,0.1l-2.5-0.699l-2-1.4l-1.4-1.7l-0.8-2l-0.3-0.8l-0.8-0.7l-0.5-0.899l-2.1-2.5
	L887,238.9l-0.7-0.9l-0.899-0.4l-1-0.299l-13.7-8.801l-16.3-7L852.3,221l-1-0.4l-0.699-0.699l-0.4-0.9l-0.3-1l-0.3-0.9L848.8,216.4
	l-1.1-0.5l-2.4-0.5l-1-0.6l-0.6-0.701l-0.2-0.899l-0.1-1.8l-0.3-0.801l-0.9-1.5l-0.2-0.799V207l-0.2-0.5l-1.1-1.8l-0.8-3.899
	l-0.7-1.301l-0.9-0.6l-1.1-0.1l-3.6,0.7l-0.7-0.7l-0.601-1.4l-0.5-2l-1.8-4.7l-0.5-0.8l-0.8-1l-0.8-0.9l-1.5-1.1l-2.5-0.6l1.399-1.3
	l1.601-3.1l0.3-0.9l0.1-0.9l-0.1-6.5l3,0.2l1.7-0.1l4.2-0.7h1.5l0.899,0.2l1.2,0.6h0.5l0.4-0.3l0.3-0.8l0.2-0.2l0.399-0.1l0.5,0.2
	l0.601,0.3l0.699,0.2l0.9-0.2l1.4-0.7l2.3-1.6l0.6-0.3l1.2-0.4l0.8-0.2l1.2-0.7l0.5-0.3l0.9-0.1l0.7-0.2h0.8l0.8,0.2h0.6h0.7
	l0.7-0.4l0.8-0.1l2.9-0.3l5.3-2.4l0.7-0.5l0.6-0.2h2.1l1.601-0.3l5.7-1.7l1.3-0.8l0.7-0.5l0.6-0.2l0.9-0.2l9.899-0.7l-1.2,1.4
	l-0.1,0.4l0.3,0.9l0.3,1.6l0.4,0.7l0.7,0.3l4.8,1.1l5.7,2.4l1.1-0.1l0.4-0.4l0.3-1.4l0.2-0.6l0.3-0.5l1.1-1.1l0.4-0.1l0.6,0.1
	l0.601,0.4l0.899,0.2l0.5-0.1l0.9-0.4l0.4-0.1l1.399-0.1l1.2-0.2l1.2-0.3l0.6-0.1l0.5-0.1l0.301-0.3l0.5-0.6l0.3-0.2l1.1-0.2
	l1.5-0.4l0.9-0.1l1,0.1l1,0.3l0.8,0.3l0.8,0.9l0.2,0.7v0.9l-0.2,0.8v2.3l0.1,1.3l0.4,0.9l1,1.4l0.6,0.4l0.4,0.6l0.1,0.7l0.4,0.5
	l0.3,0.2l0.5-0.1l0.4-0.2v0.6l0.2,0.2l0.6-0.1l0.6,0.1l0.7-0.1l0.8-0.3h0.301l0.8,0.5l1.1,0.1l0.4,0.7l-0.2,0.5l0.4,0.2l0.8,0.1
	l1.5,0.4l0.899,0.1l0.7,0.3l0.101,0.5l0.3-0.1l0.3-0.5l0.5-0.4h0.6l0.7-0.7h0.101l0.3,0.5l0.3,0.1l0.6-0.4h0.601l0.5,0.2l1.399-0.1
	l0.5,0.3h1.2l0.4-0.4l0.8-0.7h0.3l0.101,0.3l0.3-0.3h0.899l1,0.5h0.601l0.399-0.1l0.301-0.3l0.199,0.1l0.301,0.6v0.7l0.1,0.1
	l0.6-0.2l1,0.5l0.801,0.1l0.699,0.2l1,1h0.7l0.3,0.2l0.4,0.4l0.8,0.4l1,0.2h1.101l0.5,0.1l0.699-0.3l-0.1-0.5l0.2-0.4l0.7-0.1
	l0.199,0.1l-0.199,0.5l0.1,0.3l0.3,0.3l1.4,0.4l0.399,0.2l0.7,1.6l0.7-0.2l0.4,0.1l0.5,0.3l0.5,0.4l0.199,0.2h0.9l0.9,0.3l0.699-0.1
	l0.301,0.3l0.8,1.5l0.6,0.8l0.101,0.5l0.199,0.2l0.4-0.2l0.5-0.4h0.1l0.301,0.6l0.3,0.2l0.6,0.1l1.7,0.7l0.4,0.3h0.3l0.399,0.2
	l0.4,0.4l0.6,0.2h0.5l0.4,0.3l0.4,0.5l0.199,1.3L978,192.3L978,192.3z">
		<title></title>
	</path>
<path id="ECU1289" name="Napo" fill="#7C7C7C" stroke="#FFFFFF" stroke-width="2" stroke-linecap="round" stroke-linejoin="round" d="
	M827.2,173.6l0.1,6.5l-0.1,0.9l-0.3,0.9L825.3,185l-1.399,1.3l-1.2,1.2L822.1,188l-1,0.4l-0.8,0.3h-1.5l-2-0.3l-0.899,0.2
	l-1.101,0.6l-0.7,0.5l-1,1.4l-0.5-0.7l-0.199-1.1l-0.2-0.2l-0.4-0.2l-0.8-0.3l-0.6-0.4l-0.7-0.3l-1.101-0.3l-0.8-0.3l-1.399-1
	L805.6,186H804.9l-0.5,0.7l-0.4,1l-0.5,0.6l-0.7,0.2l-1-0.2l-0.899-0.1l-1.101,0.1l-1.1,0.4l-1.4,0.2h-1.6l-3.101-0.7l-1.399-0.6
	l-1.2-0.7l-1.8-1.3l-0.9-0.4l-0.7-0.2l-0.8,0.1l-0.899,0.3l-1.9,1.3l-1.2,0.4l-0.5-0.9l-0.7-0.7l-1.399-2.1l-0.2-0.9l0.6-3l0.4-1.1
	l0.8-1.7l0.3-1l0.101-2.2l0.1-0.8l1.3-2.4l1.7-0.6l1.6-1.4l1.5-0.5l1.101-0.2l1.1-0.1l2.8,0.6l1.5,0.1l0.9-0.2l1-0.5l1.4-1.2
	l0.6-0.2l1.6-0.1l0.5-0.2l0.5-0.3l0.2-0.5v-1.1l0.601-0.6l0.6-0.1h0.7l0.8,0.5l0.3,0.3l0.5,0.4l0.8,0.2l1.4-0.1l0.8-0.3l0.5-0.6
	l0.7-1.2v-1.1l0.1-0.6l0.2-0.6l0.3-0.6l0.3-0.5l1.7-1.5l1.2,2.1l1.5,1.7l0.6,1.1l0.2,0.9v2.8l-0.1,0.8l-0.1,0.6l-0.601,1.1l-0.2,0.6
	l0.2,0.3h0.4l2.1-1.3l0.7-0.1l0.8-0.1l1.3,0.3l0.5,0.1l1-0.3L821,168l0.2,0.3l0.399,0.9l0.2,0.1l1.1-0.1l0.2,0.3l0.601,1.2
	l0.899,0.3l2,0.3l0.4,0.4l0.2,0.5V173.6L827.2,173.6z">
		<title></title>
	</path>
<path id="ECU1290" name="Tungurahua" fill="#7C7C7C" stroke="#FFFFFF" stroke-width="2" stroke-linecap="round" stroke-linejoin="round" d="
	M875.8,103.6l0.601,4.2l-0.2,0.6l-0.101,1.7l-0.199,0.8v0.6l0.3,0.7l0.399,0.6l0.801,1l0.699,1l0.2,0.4l-0.2,0.8l-0.199,0.6l0.6,1.1
	v0.9l-0.2,0.5l-0.7,0.6l-0.1,0.4l0.1,1l-0.3,0.5l-0.5,0.5l-0.6,0.3l-1.8,0.8l-0.2,0.4v0.5v0.9l-0.2,0.4l-0.2,0.1l-0.8-0.2h-0.3
	l-0.3,0.2l-0.2,0.4l-0.7,1.5l-1.4,2.3l-0.5,0.5l-0.7,0.3l-0.8,0.1l-1.1-0.2l-1.5-0.5l-1.3-0.6l-2.601-1.6l-0.8-0.3l-0.5,0.1
	l-0.2,0.5v0.5v0.7l-0.199,0.5l-0.4,0.4l-1.9,1.1l-0.5,0.5l-0.399,0.4l-0.101,0.5l0.2,0.5l0.7,0.4l0.6,0.1l0.601,0.3l0.699,0.6
	l1.601,2.1l0.7,1.3l0.3,0.4l0.8,0.5l0.5,0.4l0.3,0.6l0.5,1.5v0.8l-0.2,0.6l-0.8,1.1l-0.399,0.7l-0.5,1l-0.301,1.1l-0.1,0.9l0.5,1.9
	l-0.1,0.8l-1.4,3.4l-0.5,0.8l-0.5,0.7l-0.6,0.5v0.5l0.699,0.5l1.4,0.2l1.5-0.1l1.1-0.3l1-0.4l0.2-0.1l1.101-0.3l0.699-0.5l9.4-4.5
	l2.1-0.8l0.5-0.2l0.801-1l1.399-2.9l2.7-2.5l0.8-0.4l0.8-0.5h0.801l0.399,0.3l0.2,0.4l-0.3,0.6l-0.5,0.7l-2.9,2.7l-0.7,1L882,149
	l-0.101,0.9l0.2,1l0.4,0.5l0.6,0.3l0.5,0.2l0.5,0.2l2.7,1.9l1,0.4l2.5,0.4l0.8,0.2l0.3,0.3l0.101,0.4l-0.4,0.5l-1,1l-0.2,0.3
	l0.301,0.5l0.3,0.3l0.5,0.7l-0.5,1.3l-9.9,0.7l-0.899,0.2l-0.601,0.2l-0.7,0.5l-1.3,0.8l-5.7,1.7l-1.6,0.3h-2.1l-0.601,0.2l-0.7,0.5
	l-5.3,2.4l-2.899,0.3l-0.801,0.1l-0.699,0.4H856h-0.601l-0.8-0.2h-0.8l-0.7,0.2l-0.899,0.1l-0.5,0.3l-1.2,0.7l-0.8,0.2l-1.2,0.4
	l-0.601,0.3l-2.3,1.6l-1.399,0.7l-0.9,0.2l-0.7-0.2l-0.6-0.3l-0.5-0.2l-0.4,0.1l-0.2,0.2l-0.3,0.8l-0.399,0.3h-0.5l-1.2-0.6
	l-0.9-0.2h-1.5l-4.2,0.7l-1.699,0.1l-3-0.2v-1.4l-0.2-0.5l-0.4-0.4l-2-0.3l-0.9-0.3l-0.6-1.2l-0.2-0.3l-1.1,0.1l-0.2-0.1l-0.4-0.9
	L821,168l-0.601,0.1l-1,0.3l-0.5-0.1l-1.3-0.3l-0.8,0.1l-0.7,0.1l-2.1,1.3h-0.4l-0.2-0.3l0.2-0.6l0.6-1.1l0.101-0.6l0.1-0.8v-2.8
	l-0.2-0.9l-0.6-1.1l-1.5-1.7l-1.2-2.1l-1-0.5l-1.399-0.3l-0.4-0.3l-0.2-0.4l0.1-0.4l0.801-0.5l0.199-0.4l0.2-0.5v-0.9l0.101-0.6
	l0.3-0.8l0.6-0.9l0.7-1.3l0.2-1.1l-0.101-1.3l-0.3-2.1l-0.6-2.1l-0.1-0.7l0.5-1.5l1.3-0.6l0.7-0.2l1.5-0.3l0.5-0.3l0.399-0.5
	l0.2-0.8l0.2-1.6l0.3-0.8l0.6-0.8l1.101-1.1l0.7-0.9l0.5-1.2l0.1-0.8v-0.6l0.1-0.6l0.3-0.7l0.7-1.2l0.3-0.8l0.101-0.6l-0.9-1.7
	l0.3-0.8l0.7-1.2l1.601-2.2l0.8-1.4l0.399-1.4l0.2-5.4l-0.1-0.6l0.1-0.5l0.4-0.4l1.1-0.2l1.4-0.5h0.5l0.5,0.2l0.6,0.6l0.3,0.1h0.5
	l0.7-0.3l0.5-0.5l0.7-1.2l0.3-1.1l0.3-0.1h0.5l1.301,0.4l0.6-0.1l0.3-0.2l0.601-1.1l0.399-0.3l0.3-0.2l0.301-0.3l0.199-0.6
	l0.101-1.6l0.2-0.5l0.399-0.4l2.2-0.7l4.2-2.2l0.7-0.5l0.8-1.4l2.6,0.7l0.601,0.3v0.4l-0.301,0.5l-0.1,0.9l0.4,1.9l0.399,1.2
	l0.8,0.5l1.101,0.2l5.899,0.2l1.7,0.4l0.7,0.3l0.7,0.4l0.399-0.1l0.601-0.4l1.3-1.4l0.6-0.4l1.101-0.1l0.5-0.2l0.399-0.3l0.4-0.6
	l0.5-0.2l0.8-0.6l0.8-0.3l0.301,0.2l0.3,0.4l0.1,0.7l0.5,0.7v0.2l-0.3,1v0.3l0.2,0.5v0.6l-0.2,0.7v0.4l0.1,0.4l0.601,0.2l2.7,0.6
	l1,0.1h0.699l0.801-0.5l0.3-0.5l0.7-1.3l0.399-0.8L875.8,103.6L875.8,103.6z">
		<title></title>
	</path>
<path id="ECU1335" name="Esmeraldas" fill="#7C7C7C" stroke="#FFFFFF" stroke-width="2" stroke-linecap="round" stroke-linejoin="round" d="
	M780.7,24.4l-0.8,1.6l-1.4-0.7l-0.6,0.7l-0.7,0.5l-1.2-0.9l-0.9-1l-0.199-1.1l0.899-1.3l4.7-3.9l0.1,1L780.9,20v2L780.7,24.4
	L780.7,24.4z M805.7,29.4l-1,1l-0.101,0.4v0.8l0.101,1.1l0.1,1.9l-0.399,1.3l-1.4,2.3l-0.4,1.1l-0.3,3.4l0.2,1.1l0.5,1l0.9,1
	l0.699-0.1l0.9,0.6l1.1,1.1l0.9,0.7l0.3,0.1v2.3l0.101,1.1l-0.2,0.8l-0.4,0.7l-0.5,0.5l-0.4,0.2L806,54l-1.2,0.1l-0.5,0.1l-0.6,0.3
	l-0.101,0.4l0.101,0.5l1.8,3.3l0.3,0.6l0.4,1.7l0.3,0.7l0.3,0.6l1.6,1.9l0.5,1L809,66.1l-0.2,0.8l-0.3,0.4l-0.5,0.4l-0.5,0.2
	l-0.9,0.1H806l-0.9-0.2l-0.5,0.1l-0.6,0.2l-1.9,1.4l-0.5,0.5l-0.8,1.2l-2,2.1l-2,2.6l-1,1.1l-1,0.7l-0.4,0.2L794,78l-0.4-0.2
	l-0.5-0.3l-0.8-0.8l-0.4-0.3l-0.6-0.2l-1.1-0.1l-1.2-0.3l-0.7-0.3l-2.1-0.2l-1.801-0.6l-0.699,0.1L783,75l-1.101,0.7l-0.699,0.6
	l-0.7,0.8L780,78v0.6l-0.101,0.2l-0.699,0.3l-1.2,1.4l-2,3.1l-0.601,0.6l-0.3,0.1l-1.1-0.1l-0.9-1.1l-0.8-0.5l-6.3-1.4l-1.5,0.1
	l-1.4-0.1H762.2l-0.7,0.1l-1.7,1.2l-0.6,0.3l-0.801,0.3l-0.5,0.3l-1.3,1.1l-0.8,0.5l-1.2,0.5l-0.5,0.4l-0.399,0.4v0.4l0.199,0.4
	l1.601,1.1l0.899,0.9l0.2,0.4v0.3l-0.2,0.4l-0.699,1.1L755,93l-0.8,1.4l-1.2,2.9l-0.3,0.7l-0.801,0.8l-0.8,0.3l-1.6,0.4l-0.5,0.3
	l-1.101,0.4l-0.1,0.3l0.1,0.3l0.601,0.9l0.3,0.2l0.5-0.1l0.4,0.3l-0.101,0.4l-0.3,0.2l-0.4,0.4H748.7l-0.5-0.4l-1.101-0.6l-1.7-0.4
	l-3.699-0.5l-1.2-0.3l-1.2,0.1l-1-1.6l-0.2-0.3v-0.7l-0.2-0.6v-0.4l0.4-0.6l0.4-0.2l0.3-0.3l0.1-0.7l0.2-0.5l1.6-1.7l-0.3-0.4H740.2
	l-0.801-0.3l-1.199-1.1l-0.4-0.4l-0.5-0.3l-0.3,0.2l-0.7,0.4H736l-0.2-0.5l-0.1-1l-0.2-0.3l-0.5,0.1l-0.601,0.2l-0.6-0.2l-0.9-0.8
	v-0.4L734,87l0.3-0.4l0.6-0.8l0.4-0.2l0.4-0.4l0.199-0.4l-0.1-0.2l-0.3-0.4l-2.8-1.7l-0.4-0.4l-0.1-0.5v-0.4l0.399-0.8l0.601-0.6
	l0.1-0.3l-0.2-0.5l-0.5-0.5l-0.6-0.4l-0.601-0.3l-0.8,0.1l-0.7,0.3l-0.699,0.4L728,80l-0.601,0.4l-1.199,0.5l-1.101,0.2l-1,0.1
	l-2-0.1l-0.399,0.1l-0.2,0.3l-0.101,0.7l-0.6,1.2l-0.3,0.4l-0.9,0.8l-0.399,0.1l-0.801-0.1l-0.899-0.3l-0.7-1.1l-1.6-3.6l0.399-0.7
	l0.101-0.5l-0.101-0.8l-0.3-0.5l-0.8-0.8L713,74l-0.4-1.2l-0.1-1.2l0.1-1.3l0.4-0.7l0.6-0.6l0.5-0.9l0.101-1.2l-0.301-1.3l-0.399-1
	l-0.5-1.7l-0.5-0.7l-0.8-0.5l-1.101-0.1l-0.8-0.3l-0.5-0.7l-0.3-0.9l-0.2-1v-2.5l0.6-2.5l1.301-2.2l1.8-1.4l1,0.5l0.899,0.2l1.9-0.2
	l0.9-0.3l1.199-1.1L719.2,49l0.8-0.2l1.5-0.5l1.899-0.4l1.101-0.8l0.8-0.2l0.4-0.2l1.8-1.4l0.5-0.5l0.7-1.1l0.399-0.4l1.5-0.7
	l3.5-1.1l1.601-1.1L736,41v0.5l-1.2,3.8l0.3,0.8l0.5,0.6l0.601,0.4l0.699,0.6l0.801,1.6l0.399,0.5l-1-2.7l-0.7-0.6l-0.3-0.4v-0.3
	l0.3-0.6l0.101-0.3l-0.101-1.5l0.101-1.1l0.6-0.9l1-0.6l2.601,0.8l2.8-1.6l4-3.7l1.3-0.4l4.2,0.4l0.5-0.2l1.399-0.5l0.5-0.1h1.7
	l0.7-0.1l0.7-0.4l1.399,0.8l1.7-0.2l1.7-0.6l1.5-0.4l1.1-0.5l4.5-6l0.9-0.5l1.4,0.5l1.199,1l0.7,1.2l0.4,1.5l0.2,1.7l1.1-0.7
	l0.6-0.8l0.301-1.2l0.199-2.6l0.301-0.7l0.6-0.5l0.6-0.9l0.2,0.5l0.3,0.2h0.5l0.601-0.3l0.6-0.5v-0.4v-0.5l0.2-0.6l1-1.1l1-0.2
	l2.5,0.9l-0.4-0.9l-1.1-0.3l-1.2-0.1l-1-0.4l-0.399-0.8l0.199-0.8l0.5-0.7l2.2-2.2l0.4-0.8v-0.9l-0.3-0.8l0.199-0.7l3.4,2.4l1.3,1.7
	l1.8,1.5l0.601,1l0.5,1.3l0.899,1.2l1.2,0.9l1.4,0.4l0.899-0.1l0.9-0.3l0.5,0.2l0.1,1.1l0.301,0.6l1.199,1.4l0.301,0.9l0.899-0.5
	l0.9-0.1l3.3,0.8L805.7,29.4L805.7,29.4z">
		<title></title>
	</path>
<path id="ECU1409" name="Carchi" fill="#7C7C7C" stroke="#FFFFFF" stroke-width="2" stroke-linecap="round" stroke-linejoin="round" d="M863,60.8
	l-0.2,0.3l-2.1,1.6l-1,0.2l-1.2-0.4l-0.3-0.1H856.6l-0.6-0.1l-0.9-0.3l-0.5-0.1H854l-0.4,0.5l-0.1,0.6l0.2,0.7l0.7,0.5l0.399,0.6
	l0.101,0.5l-0.2,0.4l-0.4,0.4l-2.2,1.6l-0.5,0.5l-4.1,5.2l-0.5,0.9l-0.3,0.7l-0.1,1v0.5l0.1,0.8l-0.2,0.7l-1.3,1.6l-1.5-0.8l-1-1.3
	L842,77l-2.8-1.5l-2.4-1.7l-2.7-1.6l-2.1-0.5l-1-0.1l-1.2-0.3l-0.8-0.4l-0.4-0.4L826.4,70l-0.7-0.9l-0.3-1L825.3,67l0.101-1.7
	l-0.101-0.5l-1.2-3.5l-2.3-2.9l-1.6-2.7l-1.4-1.7l-1.899-1.6l-2.7-1.8l-1-0.9l-0.5-0.4l-0.7-0.1l-2.2-0.2l-1.2-0.4l-0.8-0.4
	l-0.3-0.1l-0.9-0.7l-1.1-1.1l-0.9-0.6l-0.699,0.1l-0.9-1l-0.5-1l-0.2-1.1l0.3-3.4l0.4-1.1l1.4-2.3l0.399-1.3l-0.1-1.9l-0.101-1.1
	v-0.8l0.101-0.4l1-1l0.7,0.6l5.6,6.2l1.4,1.1l1.1,0.5l3.5,1l1.3,0.6l7.7,5.9l2.5,1.2l4.2,0.1l4.1,1.6h0.601l0.3-0.2l0.3,0.1l0.6,0.6
	l0.2,0.6v0.6l0.1,0.7l0.601,0.5l1.399,0.6l1.301,0.2l1.199,0.1l1.2-0.3l4.7-1.8h1.5l1.8,1.4l0.3,4.3l1.301,1.9l3.899,2.7l2.2,0.8
	L863,60.8L863,60.8z">
		<title></title>
	</path>
<path id="ECU1410" name="Imbabura" fill="#7C7C7C" stroke="#FFFFFF" stroke-width="2" stroke-linecap="round" stroke-linejoin="round" d="
	M845.2,79.6l-1.9,2.4l-0.399,0.7l0.1,0.7l0.9,0.3v0.4l-1.101,1.3l-1.1,1.5l-0.3,0.4l-0.5,0.3l-0.601,0.2l-0.899,0.5l-2,2.2l-6.9-2.1
	h-1l-0.7,0.4l-1.399,1.1l-1,0.6l-2.7,1.3l-1.601,0.3l-1.5,0.1l-1.6-0.5l-1.1-0.5l-0.9-0.7l-1.3-1.1l-0.601-0.5l-0.6-0.1l-0.7,0.3
	l-1,1l-0.399,0.1l-0.101-0.3l0.101-0.4l0.3-1l0.1-0.6l-0.1-0.7l-0.2-0.6l-0.4-0.5l-1-0.4l-1.6-0.2l-3.1,0.2l-3.2,0.6h-0.8
	l-1.301,0.3L798,87l-0.6,0.2l-0.8,0.1H795.3l-6-1.3l-1.399-0.1l-5.101,0.6l-2.399,0.7l-1.2,0.1l-0.8,0.2l-0.9,0.1l-1-0.3l-0.9-0.4
	l-0.6-0.4l-1-2.3l1.1,0.1l0.301-0.1l0.6-0.6l2-3.1l1.2-1.4l0.7-0.3l0.1-0.2V78l0.5-0.9l0.7-0.8l0.7-0.6L783,75l0.7-0.2l0.7-0.1
	l1.8,0.6l2.1,0.2l0.7,0.3l1.2,0.3l1.1,0.1l0.601,0.2l0.399,0.3l0.8,0.8l0.5,0.3L794,78l0.4-0.1l0.399-0.2l1-0.7l1-1.1l2-2.6l2-2.1
	l0.8-1.2l0.5-0.5l1.9-1.4l0.6-0.2l0.5-0.1L806,68h0.6l0.9-0.1l0.5-0.2l0.5-0.4l0.3-0.4l0.2-0.8l-0.1-0.9l-0.5-1l-1.601-1.9l-0.3-0.6
	l-0.3-0.7l-0.4-1.7l-0.3-0.6l-1.8-3.3l-0.1-0.5l0.1-0.4l0.6-0.3l0.5-0.1L806,54l0.4-0.2l0.399-0.2l0.5-0.5l0.4-0.7l0.2-0.8
	l-0.101-1.1v-2.3l0.801,0.4L809.8,49l2.2,0.2l0.7,0.1l0.5,0.4l1,0.9l2.7,1.8L818.8,54l1.4,1.7l1.6,2.7l2.301,2.9l1.199,3.5
	l0.101,0.5L825.3,67l0.101,1.1l0.3,1l0.7,0.9l2.2,0.5L829,70.9l0.8,0.4l1.2,0.3l1,0.1l2.101,0.5l2.699,1.6l2.4,1.7L842,77l0.7,0.5
	l1,1.3L845.2,79.6L845.2,79.6z">
		<title></title>
	</path>
<path id="ECU1411" name="Sucumbios" fill="#7C7C7C" stroke="#FFFFFF" stroke-width="2" stroke-linecap="round" stroke-linejoin="round" d="
	M996.7,138.4l-1,0.1l-0.2-0.5l0.1-0.7l-0.3-0.3l-0.8,0.2h-0.7l-2.1-0.6l-0.9-0.4l-1-0.2l-0.399-0.4l-0.301-1.1l-0.3-0.5l-0.3-0.2
	h-0.9l-0.5-0.1l-0.6-0.4l-0.7-0.3h-2.7H982.2l-1.9-0.6l-1.1-0.9l-0.4-0.8l-0.1-0.6l-0.3-0.5l-0.7,0.3h-0.2l-0.3-0.7l-0.3-0.3
	l-0.7-0.4l-1.3-0.6l-0.7-0.4l-0.601-0.3l-0.6,0.1l-0.5,0.2l-0.9,0.3H970.9l-0.7-0.4l-0.4-0.4l-0.5-0.8l-0.3-0.4l-0.5-0.4l-0.5-0.1
	l-1.2,0.4l-0.7,0.1H964.7l-0.5,0.1l-0.601,0.2l-0.5,0.1l-0.7-0.2l-0.699-0.5l-0.801-0.5l-1.1-0.2l-1.9-0.1l-1,0.3l-0.699,0.3
	L956,126v0.9l0.5,4.9l0.3,0.7l0.4,0.7l-0.101,0.2l-0.3,0.2l-0.7-0.1l-1.399-0.1l-1.301-0.3L952,132.3l-2.4-1.7l-1.2-0.6l-0.3-0.4
	l-0.2-1.4l-0.3-0.8l-0.399-0.6l-0.301-0.3l-5.6-0.4l-4.6,0.4l-0.5,0.2l-1.301,0.6L933,127.9l-0.5,0.2l-2.4,1.8l-1.399,0.6L928,130
	l-0.4-0.9l-0.899-0.3l-2.4,0.1l-1.1-0.5L920.1,126l-1.3-1.7l-1.4,0.4l-1.3,0.8l-0.7-0.9l-0.3-0.5l-0.5-0.6l-3.3-2.4l-0.7-0.6
	l-1.1-1.7l-0.5-0.6l-1.101-1.6l-0.199-0.9l-0.301-0.5l-1.8-1.6l-6.1-7.3l-0.601-1l-0.399-0.5l-0.8-0.5l-0.9-0.2l-1.5,0.2l-0.9,0.4
	l-0.899,0.4l-0.7,0.5l-0.8,0.5l-1.3,0.2l-1.5-0.1l-3.301-0.9l-1.1-0.2l-0.9,0.2l-0.699,0.2l-0.7,0.2l-0.601-0.2l-1.8-1.2l-1.6-0.8
	l-1-0.3l-0.8-0.2l-0.9,0.6l-1.6,1.8l-0.4,0.8l-0.7,1.3l-0.3,0.5l-0.8,0.5h-0.7l-1-0.1l-2.7-0.6l-0.6-0.2l-0.101-0.4v-0.4l0.2-0.7
	v-0.6l-0.2-0.5v-0.3l0.301-1v-0.2l-0.5-0.7l-0.101-0.7l-0.3-0.4l-0.3-0.2l-0.8,0.3l-0.8,0.6l-0.5,0.2l-0.4,0.6l-0.4,0.3l-0.5,0.2
	l-1.1,0.1l-0.6,0.4l-1.301,1.4L859,106l-0.4,0.1l-0.699-0.4l-0.7-0.3l-1.7-0.4l-5.9-0.2l-1.1-0.2l-0.8-0.5l-0.4-1.2l-0.4-1.9
	l0.101-0.9l0.3-0.5v-0.4l-0.6-0.3l-2.601-0.7l-0.8-0.2l-0.2-0.2l-0.2-0.9l-0.199-0.6l-0.5-0.6l-0.801-0.5l-0.8-0.2l-0.899-0.3
	l-1.5-0.8H837.6l-0.7-0.2l-0.699-0.2l-0.301-0.2V93l1.5-2.5l2-2.2l0.9-0.5l0.6-0.2l0.5-0.3l0.301-0.4l1.1-1.5l1.1-1.3v-0.4L843,83.4
	l-0.101-0.7l0.4-0.7l1.9-2.4l1.3-1.6l0.2-0.7l-0.101-0.8V76l0.101-1l0.3-0.7l0.5-0.9l4.1-5.2l0.5-0.5l2.2-1.6l0.4-0.4l0.199-0.4
	l-0.1-0.5l-0.4-0.6l-0.699-0.5l-0.2-0.7l0.1-0.6l0.4-0.5h0.6l0.5,0.1l0.9,0.3l0.6,0.1h1.601l0.3,0.1l1.2,0.4l1-0.2l2.1-1.6l0.2-0.3
	h0.3l2.5,0.6l0.8,2.9l0.3,6.2l0.601,2l0.2,1.8l0.699,1.5L870,77.1l2,0.7l6.399,1.3l1.101,0.4l0.899,0.5l0.9,0.2h1.3l3-1.2l1-0.2
	l2.101,0.6l2.199,2.5l1.801,0.6l2.399,0.1l0.7,0.1l1,0.3l0.6,0.5l1.301,1.3l1,0.7l0.899,0.3l0.9,0.1l4.1-0.6h0.8l2.101,1h0.899
	l-0.199-2.4l0.8-0.3l2,0.6l2.899,0.3l0.9,0.2l0.9,0.7l1.6,1.5l1.1,0.4l0.9-0.1l1.5-0.8l5.9-0.7l1.1-0.7l-0.6-4l0.1-4.4v-0.4l0.6,0.1
	l1.2-0.1l0.7-0.1l0.5-0.2l1.5-1.8l1.7-1.3l0.7-0.2l0.6,0.3l1.6,1.8l1.2,0.7l1.101,0.5l1.3,0.3l1.5,0.1l1.3-0.1l0.7,0.1l0.399,0.2
	l0.4,0.6l0.3,1.6l0.3,0.5L947,79.1l1.5-0.4l1.399-0.2l0.5,0.9l0.301,0.7l4,5l0.3,0.8l0.3,1.1l0.6,1l1.5,1.4L961,91.6l0.5,0.8
	l2.399,1.8l1.7,0.9l0.9,0.4l1.2,0.3l1.3,0.1l1.399-0.1l2.5-0.6l1.2-0.1l1.101,0.3l1,0.9l0.699,0.8l0.7,0.4l1,0.4l2.8,2.5l3.5,2.1
	l1.4,0.5l1.2,0.8l3.3,0.7l3.8,1.4l1.101,0.6l-0.7,0.9l-1.4,1l-0.8,0.4l-0.7,0.2l-1,0.1l-2-0.3h-0.5l-1.6,1.1l-1.601-0.2l-4.1-2.2
	l-0.9-0.2h-0.8l-1,0.1l-1-0.2l-1.1-0.4l-1-0.3l-0.9,0.3l-0.3,1l0.3,1.3l0.5,1.2l0.601,0.6l0.5,0.1l1.3-0.1l0.6,0.1l0.7,0.5l1.3,1.1
	l0.7,0.4l1.3,0.4l0.9,0.6l0.7,0.9l1.899,6.7l1.101,2.5l1.699,2.4l1.101,1l0.7,0.5l0.6,0.1l0.7-0.1l0.399,0.2l0.2,0.3l2.3,1.8
	l0.301,0.3l0.3,0.7l0.2,0.3l0.3,0.1l0.6-0.3l0.2,0.1l0.7,1l0.2,1.1L997,136l0.1,0.4l0.2,0.9l-0.1,0.6L996.7,138.4L996.7,138.4z">
		<title></title>
	</path>
<path id="ECU5507" name="Santa Elena" fill="#7C7C7C" stroke="#FFFFFF" stroke-width="2" stroke-linecap="round" stroke-linejoin="round" d="
	M684.5,209.8l0.6,2.601l1.7,2.8l3.101,1.8l4.699,1.2l3.5,2.101l2.101,2l2.3,3.6l-0.1,5.199l-1,6.101l-2.601,4l-2.899,1.7
	L690.8,244.1l-3.6,2.701l-4.3,4.1l-1.801-2.2L676.2,244.1l-1.9-0.699l-1.8-0.801l-1.9,0.101L667.4,241.6l-1.101-0.5l-2.5-2.199
	l-1.3-0.5h-0.9l-0.699-0.1l-0.5-0.601l-0.301-2l-0.5-0.899l-0.899-1.4l-0.9-0.801l-2.2-1.799l-0.5-1L655,229.2l0.2-0.2l0.5,0.1
	l0.5,0.701l1.5,0.399h0.7l0.399,0.2l0.3,1l0.7,0.8h1.5l2.101-0.8l3.1-2.4l2.3-1.199l2.1-2.4l0.5-3.5L670.5,220.1l-0.4-1.899
	l-0.2-0.5l0.2-0.601l0.7-0.1l0.8-0.5l0.2-1.4l-0.2-1.5L670,207.2l-1.3-3.601l-0.5-0.899L667.6,202l-0.7-1.1l-0.3-0.9l1.601-0.3
	l1.1,0.1h0.4l0.899-0.3l4.2,0.2l1.2-0.2l2.1-0.7h1l1.8,0.2l0.801,0.5l0.3,0.5l-0.101,0.9l0.101,0.4l0.8,0.699l0.2,0.5l0.1,0.5
	l-0.2,1.801l-0.1,0.299l-0.7,1.101l-0.399,1.101v0.5l0.1,0.6l0.5,0.6l1,0.5L684.5,209.8L684.5,209.8z">
		<title></title>
	</path>
<path id="ECU5508" name="Santo Domingo de los Tsáchilas" fill="#7C7C7C" stroke="#FFFFFF" stroke-width="2" stroke-linecap="round" stroke-linejoin="round" d="
	M779.3,120.7l-0.3,0.1l-0.6,0.7l-0.7,0.1l-0.5,0.4l-0.5,0.8l-0.2,0.9l-0.5,0.5l-1.2,0.6l-0.5,0.6l-0.8,1.8l-0.8,1.5l0.399,0.6l1,0.4
	l0.5,0.4l0.301,0.4l0.3,1v0.3L775,132l-1.1,0.4l-0.4,0.3l-0.3,0.3l-0.2,0.8l-0.5,0.9l-0.6,0.3h-0.5l-0.4-0.2l-0.6-0.4l-0.9-1.4
	l-1.1-0.4l-0.601,0.1l-0.899,0.5l-4.4,4.4l-0.7,0.5l-1.6,0.8l-0.7,0.5l-0.8,0.8l-0.7,0.7l-0.6,0.5l-0.801,0.2H755.9l-0.801-0.1
	l-0.699-0.3l-0.601-0.4l-0.3-0.5l-0.3-1.1l0.2-0.5l0.399-0.8l0.2-0.7l-0.1-0.9l-0.3-1l-0.2-0.8l0.3-0.5l0.6-0.8l-0.5-0.3l-1.399-0.3
	l-3.2,0.2l-1.3-0.2l-1.8-0.1l1-1.2l0.699-1.8l0.101-0.5l0.1-1.3l1.9-2.9l0.399-0.9l0.2-0.9l-0.399-10.7l0.1-1l-0.3-0.5l-0.5-0.2
	l-1.4,0.1l-0.4-0.1l-2.1-0.6l-0.4-0.2l-1.5-1.5l-1.5-1.8l-0.5-0.4l-0.699-0.5l-0.5-0.5l-0.801-0.3l-0.5-0.4l-0.3-0.6l-0.2-1.2
	l0.101-0.7l0.1-0.4l0.5-0.5l1.2-0.1l1.2,0.3l3.7,0.5l1.699,0.4l1.101,0.6l0.5,0.4h0.2l0.399-0.4l0.3-0.2l0.101-0.4l-0.4-0.3
	l-0.5,0.1l-0.3-0.2l-0.6-0.9l-0.101-0.3l0.101-0.3l1.1-0.4l0.5-0.3l1.6-0.4l0.801-0.3l0.8-0.8l0.3-0.7l3.3,2.4l12,0.4l0.4,4.9
	l10.6-0.3l1.8,1.8l5.7,3.1l3,3.4l-1.1,4.1l-7.601,0.8L779.3,120.7L779.3,120.7z">
		<title></title>
	</path>
<circle id="_x30_" fill="#7C7C7C" stroke="#FFFFFF" stroke-width="2" stroke-linecap="round" stroke-linejoin="round" cx="716.4" cy="358.5" r="0"/>
<circle id="_x31_" fill="#7C7C7C" stroke="#FFFFFF" stroke-width="2" stroke-linecap="round" stroke-linejoin="round" cx="683.6" cy="185.5" r="0"/>
<circle id="_x32_" fill="#7C7C7C" stroke="#FFFFFF" stroke-width="2" stroke-linecap="round" stroke-linejoin="round" cx="719.2" cy="222.3" r="0"/>
</svg>
